<svg width="18" height="18" viewBox="0 0 18 18" fill="none" xmlns="http://www.w3.org/2000/svg">
<path d="M7.27502 1.125H3.15002C2.5287 1.125 2.02502 1.62868 2.02502 2.25V6.375C2.02502 6.99632 2.5287 7.5 3.15002 7.5H7.27502C7.89634 7.5 8.40002 6.99632 8.40002 6.375V2.25C8.40002 1.62868 7.89634 1.125 7.27502 1.125Z" fill="#6CC4F5"/>
<path d="M17.3017 3.53205L14.4679 0.698172C14.2608 0.49139 13.9801 0.375244 13.6875 0.375244C13.3949 0.375244 13.1142 0.49139 12.9071 0.698172L10.0732 3.53205C9.86627 3.73902 9.75 4.01973 9.75 4.31242C9.75 4.60512 9.86627 4.88583 10.0732 5.0928L12.9071 7.92667C13.1143 8.13318 13.3949 8.24914 13.6875 8.24914C13.98 8.24914 14.2607 8.13318 14.4679 7.92667L17.3017 5.0928C17.5087 4.88583 17.625 4.60512 17.625 4.31242C17.625 4.01973 17.5087 3.73902 17.3017 3.53205Z" fill="#F2C94C"/>
<path d="M15.7501 9.59985H11.6251C11.0038 9.59985 10.5001 10.1035 10.5001 10.7249V14.8499C10.5001 15.4712 11.0038 15.9749 11.6251 15.9749H15.7501C16.3714 15.9749 16.8751 15.4712 16.8751 14.8499V10.7249C16.8751 10.1035 16.3714 9.59985 15.7501 9.59985Z" fill="#6CC4F5"/>
<path d="M7.27502 9.59985H3.15002C2.5287 9.59985 2.02502 10.1035 2.02502 10.7249V14.8499C2.02502 15.4712 2.5287 15.9749 3.15002 15.9749H7.27502C7.89634 15.9749 8.40002 15.4712 8.40002 14.8499V10.7249C8.40002 10.1035 7.89634 9.59985 7.27502 9.59985Z" fill="#6CC4F5"/>
</svg>
