<svg width="80" height="122" viewBox="0 0 80 122" fill="none" xmlns="http://www.w3.org/2000/svg">
<g clip-path="url(#clip0)">
<path d="M31.4833 39.5367C30.7633 39.4902 30.0411 39.4902 29.3211 39.5367C28.6285 39.67 27.9195 39.6954 27.2192 39.612C26.4658 39.5216 24.3865 37.9395 22.699 36.4479C20.8968 34.8201 19.4393 32.8476 18.4124 30.6469C17.5309 28.304 16.1523 23.4674 15.5345 21.8401C14.9167 20.2128 14.073 19.9115 13.0634 19.7683C11.8731 19.6026 11.1047 20.0697 11.73 22.5031C12.3553 24.9364 13.7189 29.5847 15.3914 32.5756C16.668 34.799 18.3021 36.797 20.228 38.4895C21.9035 39.928 23.7477 41.1575 25.72 42.1509C26.285 42.4597 26.624 42.8364 27.6411 43.5596C28.6396 44.2933 29.7996 44.7765 31.0237 44.9684C32.0558 45.0588 32.4476 44.9308 32.5304 44.7349C32.6133 44.539 32.4852 44.2753 32.0182 44.1774C31.2664 44.0781 30.5389 43.8433 29.8711 43.4843C29.8711 43.4843 30.8806 43.748 31.4983 43.8535C32.0505 43.9495 32.6132 43.9698 33.1708 43.9137C33.7057 43.8535 34.0824 43.1604 33.6153 43.0323C33.1482 42.9042 32.7565 42.9645 31.8373 42.7987C31.3531 42.7089 30.8806 42.5648 30.4285 42.3693C31.0458 42.444 31.6681 42.4692 32.2894 42.4447C32.7922 42.4567 33.2874 42.3205 33.7132 42.0529C33.9317 41.9173 34.0221 41.4427 33.4194 41.3824C32.6627 41.4246 31.9037 41.374 31.1593 41.2317C30.4059 41.0434 29.9313 40.8099 30.0519 40.7195C30.1724 40.6291 30.6018 40.7797 31.2497 40.6291C31.8976 40.4784 32.3873 39.9812 32.2818 39.6421C32.1764 39.3031 32.1462 39.4915 31.4833 39.5367Z" fill="#FFA8A7"/>
<path d="M16.0392 22.6764C15.6324 21.3429 15.3235 20.7101 14.5325 20.1451C14.0988 19.815 13.5707 19.6328 13.0257 19.6252L11.3005 27.2644L13.0257 31.1894C15.7454 31.8825 18.0055 28.9971 18.0055 28.9971C18.0055 28.9971 16.4084 23.9119 16.0392 22.6764Z" fill="#E4F2F2"/>
<path d="M6.9311 79.9021C6.82217 80.3001 6.68625 80.6903 6.52429 81.0698C6.26164 81.6521 6.10842 82.2778 6.07227 82.9156C6.07227 83.3751 7.04411 84.1511 7.72967 84.347C8.5337 84.6873 9.21636 85.2623 9.68842 85.9968C10.0281 86.447 10.4584 86.8211 10.9515 87.0948C11.4445 87.3686 11.9895 87.5361 12.5512 87.5864C13.5381 87.5864 14.6606 87.5488 14.9545 87.1947C15.2483 86.8406 14.9545 86.3509 13.169 84.6031C11.3835 82.8553 10.1555 81.778 9.68842 80.3391L6.9311 79.9021Z" fill="#2D2979"/>
<path d="M2.019 85.2737C1.58719 85.9627 1.40625 86.7796 1.50671 87.5865C1.58883 88.6637 1.53568 89.7469 1.34851 90.8109C1.29599 92.0817 1.65825 93.3351 2.38062 94.3819C2.54728 94.5943 2.76798 94.7581 3.01962 94.856C3.27126 94.954 3.54459 94.9825 3.81103 94.9386C4.07746 94.8947 4.32721 94.78 4.53413 94.6065C4.74106 94.433 4.89756 94.2071 4.98727 93.9525C5.49116 92.7349 5.58633 91.3866 5.25848 90.1103C4.91193 88.7467 5.37148 87.7146 5.14547 86.803C5.01086 86.2843 4.82669 85.7797 4.59552 85.2963L2.019 85.2737Z" fill="#2D2979"/>
<path d="M2.01915 47.8464C2.07189 49.3531 2.54651 55.9752 2.77252 59.4784C2.99853 62.9815 3.28481 67.0497 3.28481 67.0497C2.71451 68.9352 2.29135 70.862 2.01915 72.813C1.63493 75.8264 2.01915 85.2661 2.01915 85.2661C2.40482 85.5131 2.8532 85.6444 3.31118 85.6444C3.76915 85.6444 4.21753 85.5131 4.6032 85.2661C4.6032 85.2661 6.38114 76.9414 7.12698 73.5286C7.87281 70.1159 8.63371 68.5037 8.79192 66.3566C8.95012 64.2095 9.70349 52.3063 9.70349 52.3063H10.1028L11.0897 63.1925C10.2837 64.5183 9.65557 65.9443 9.22134 67.4339C8.67138 69.581 6.96124 79.8795 6.96124 79.8795C7.30011 80.2589 7.75962 80.5096 8.26205 80.5893C8.76448 80.6689 9.27899 80.5725 9.71856 80.3165C9.71856 80.3165 15.7455 66.4771 16.318 65.1135C16.8906 63.75 16.0694 44.2302 16.0694 44.2302L2.01915 47.8464Z" fill="#7FA8E6"/>
<path d="M9.70337 52.3061C11.0947 51.7978 12.4261 51.1385 13.6736 50.3398C13.0457 51.1742 12.2336 51.8523 11.3005 52.3212C11.1649 53.7526 11.1197 63.2149 11.1197 63.2149L10.1027 52.3287L9.70337 52.3061Z" fill="#597BC6"/>
<path d="M5.67287 18.4124C5.67287 18.4124 5.84614 21.7347 5.7708 22.0285C5.69547 22.3223 4.26407 23.2942 3.82712 23.6483C3.39017 24.0023 6.08722 26.6617 7.44328 27.2795C8.79934 27.8972 12.9504 26.2926 13.0257 24.266C13.1011 22.2395 12.31 20.4992 11.6621 20.3862C11.0142 20.2732 5.67287 18.4124 5.67287 18.4124Z" fill="#FFA8A7"/>
<path d="M5.67285 18.3972L5.77079 20.6573C5.77079 20.6573 7.88775 22.6688 9.57529 22.3599C10.517 22.1942 10.4191 21.6066 10.4191 21.6066V19.6855L5.67285 18.3972Z" fill="#F28F8F"/>
<path d="M5.2737 22.5256C5.2737 22.5256 7.68447 26.1116 11.0445 26.4506C12.1067 25.411 12.2047 21.6893 10.7356 20.499C10.7356 20.499 12.0841 19.4142 12.9957 19.6251C13.988 20.2271 14.7271 21.1697 15.075 22.277C15.9255 24.7471 16.3261 27.3497 16.2578 29.9613C16.1975 33.4795 16.2578 44.2376 16.2578 44.2376C16.2578 44.2376 15.8208 46.5203 12.8074 48.2154C9.7939 49.9104 7.5338 50.0762 5.44697 49.594C3.74437 49.2023 2.3431 48.5996 1.75548 47.3339C1.87602 44.8855 3.0136 38.4216 2.56911 35.3403C2.12463 32.2591 1.50687 29.9236 1.33359 27.4074C1.16032 24.8911 1.66507 24.9514 2.9232 24.0549C3.67002 23.4909 4.45545 22.9798 5.2737 22.5256Z" fill="#F5FBFB"/>
<path d="M11.0671 26.4507C11.2153 25.6391 11.311 24.8187 11.3534 23.9947C11.2043 23.0617 10.8878 22.1634 10.4192 21.3429V20.4163C10.9077 20.5344 11.3411 20.8162 11.6472 21.2148C12.5058 22.2292 12.9426 23.5343 12.8676 24.8611C12.4341 25.5542 11.8086 26.1065 11.0671 26.4507Z" fill="#E4F2F2"/>
<path d="M11.0669 26.4507C11.3155 25.976 11.7751 24.3789 12.0086 24.1454C12.4456 23.9947 12.8674 24.8987 12.8674 24.8987C12.8523 25.4354 12.6497 25.9498 12.2949 26.3527C12.1263 26.4957 11.917 26.582 11.6967 26.5996C11.4763 26.6172 11.256 26.5651 11.0669 26.4507Z" fill="#F5FBFB"/>
<path d="M12.0086 24.1455C11.7751 24.3791 11.3155 25.9762 11.0669 26.4508C11.2223 26.1896 11.3934 25.938 11.5792 25.6975C11.8278 25.381 12.1291 24.7633 12.8674 24.8838C12.8674 24.8612 12.4456 23.9948 12.0086 24.1455Z" fill="#C8DBDA"/>
<path d="M13.1841 13.4702C12.7923 10.8861 10.924 8.94996 8.27968 9.08557C7.60725 9.12215 6.94863 9.29094 6.3415 9.58231C5.73436 9.87367 5.19063 10.2819 4.74141 10.7836C4.29219 11.2853 3.9463 11.8706 3.72351 12.5061C3.50073 13.1416 3.40543 13.8148 3.44307 14.4872C3.48975 15.2719 3.71823 16.0349 4.11047 16.7161C4.50271 17.3973 5.04797 17.978 5.70317 18.4122C5.79501 18.8043 5.93415 19.1838 6.11752 19.5423C7.05169 20.6422 9.88435 21.3202 10.7131 21.1997C11.1959 21.155 11.6541 20.9658 12.0277 20.6566C12.4014 20.3475 12.6731 19.9329 12.8074 19.467C13.6813 17.4479 13.4026 14.7433 13.1841 13.4702Z" fill="#FFA8A7"/>
<path d="M12.8072 11.3909C12.2527 10.535 11.4522 9.86696 10.5111 9.47436C9.56988 9.08176 8.53197 8.98299 7.53364 9.19103C6.21218 9.47373 5.05595 10.2671 4.31677 11.3984C3.20932 11.7977 3.09631 12.6264 3.23192 13.9824C3.3149 15.3848 3.69495 16.7535 4.3469 17.9979C4.58044 18.4047 5.31121 18.1335 5.71803 18.4122C5.65776 18.239 4.3243 16.235 5.71803 15.7981C5.9294 16.1046 6.03034 16.4738 6.00431 16.8452C6.00431 16.8452 6.68987 16.7774 6.53166 15.9789C6.494 15.7528 6.44879 15.5494 6.41866 15.3686C6.35127 15.0586 6.3486 14.738 6.41082 14.4269C6.47305 14.1157 6.59882 13.8208 6.78028 13.5606C6.95575 13.3234 7.07875 13.0516 7.1411 12.7632C7.20345 12.4749 7.20372 12.1766 7.14189 11.8881C8.38139 12.3618 9.73156 12.4665 11.0293 12.1894C11.6847 12.094 12.3005 11.8174 12.8072 11.3909Z" fill="#543354"/>
<path d="M4.27156 11.3985C4.27156 11.3985 3.95515 10.389 5.27354 9.39455C6.82548 8.21929 9.04037 8.48297 11.3005 9.39455C12.7695 9.98217 15.0673 9.26647 14.6078 10.954C13.9599 13.4251 9.18351 13.636 7.07409 11.9183C6.20413 11.4948 5.23556 11.3151 4.27156 11.3985Z" fill="#543354"/>
<path d="M5.67287 18.3971C5.67287 18.3971 5.55233 18.6683 5.05511 18.6984C4.12093 18.7436 3.01349 17.0109 3.76685 15.8206C3.88052 15.6791 4.02447 15.565 4.1881 15.4866C4.35173 15.4081 4.53087 15.3674 4.71233 15.3674C4.89378 15.3674 5.07293 15.4081 5.23656 15.4866C5.40019 15.565 5.54414 15.6791 5.6578 15.8206L5.67287 18.3971Z" fill="#FFA8A7"/>
<path d="M5.78593 21.3655C5.8462 21.8778 8.55078 23.8893 9.19115 24.153C9.83151 24.4167 11.067 26.4131 11.067 26.4131C10.61 26.3484 10.1439 26.4024 9.7138 26.57C9.28367 26.7376 8.9039 27.013 8.61105 27.3699C8.61105 27.3699 4.76888 25.7577 4.15112 23.1736C4.15112 23.1736 4.90449 21.7949 4.97229 21.4409C5.0401 21.0868 5.37158 20.6875 5.77086 20.6875L5.78593 21.3655Z" fill="#E4F2F2"/>
<path d="M8.61108 27.4075C8.61108 27.4075 8.89736 25.4337 9.30418 25.2529C9.711 25.0721 11.0671 26.4508 11.0671 26.4508C10.394 27.0611 9.51959 27.4017 8.61108 27.4075Z" fill="#F5FBFB"/>
<path d="M9.30418 25.2529C8.89736 25.4337 8.61108 27.4075 8.61108 27.4075C9.04042 26.9965 9.51273 26.6327 10.0199 26.3227C10.374 26.2931 10.7305 26.3367 11.0671 26.4508C11.0671 26.4508 9.71853 25.0721 9.30418 25.2529Z" fill="#C8DBDA"/>
<g style="mix-blend-mode:multiply" opacity="0.15" filter="url(#filter0_f)">
<path d="M79.1864 92.6573L43.3187 113.367C42.7114 113.674 42.0404 113.835 41.3599 113.835C40.6794 113.835 40.0084 113.674 39.4011 113.367L3.53336 92.6573C3.30872 92.5594 3.1146 92.4028 2.97142 92.2039C2.82825 92.0051 2.7413 91.7713 2.71973 91.5272C2.729 91.3656 2.77199 91.2077 2.84595 91.0637C2.9199 90.9196 3.02318 90.7927 3.14915 90.691C3.26535 90.5827 3.39438 90.4891 3.53336 90.4122L39.4011 69.6946C40.008 69.3863 40.6792 69.2256 41.3599 69.2256C42.0406 69.2256 42.7118 69.3863 43.3187 69.6946L79.1864 90.3972C80.2637 91.0224 80.2637 92.0395 79.1864 92.6573Z" fill="#A7C8F0"/>
</g>
<path d="M79.1864 76.6626L43.3187 97.3651C42.7168 97.6869 42.0421 97.8478 41.3599 97.8322C40.6811 97.8464 40.0098 97.6883 39.4087 97.3726L3.53336 76.6626C3.31011 76.5628 3.11725 76.4056 2.97435 76.2071C2.83145 76.0087 2.74361 75.7759 2.71973 75.5325C2.7413 75.2885 2.82825 75.0547 2.97142 74.8558C3.1146 74.657 3.30872 74.5004 3.53336 74.4025L9.22881 71.1178L39.4011 53.6924C40.008 53.3841 40.6792 53.2234 41.3599 53.2234C42.0406 53.2234 42.7118 53.3841 43.3187 53.6924L79.1864 74.4025C80.2637 75.0203 80.2637 76.0373 79.1864 76.6626Z" fill="#DCEEFF"/>
<path d="M41.3599 89.6507V97.8172C40.6811 97.8314 40.0098 97.6733 39.4087 97.3576L3.53336 76.6626C3.31011 76.5628 3.11725 76.4057 2.97435 76.2072C2.83145 76.0087 2.74361 75.776 2.71973 75.5326V68.4585C2.72691 68.2943 2.76891 68.1334 2.84294 67.9867C2.91697 67.8399 3.02135 67.7106 3.14915 67.6072L9.22882 71.1179L41.3599 89.6507Z" fill="#A5CBFA"/>
<path d="M41.3599 89.6507V97.8172C42.0387 97.8314 42.71 97.6733 43.3111 97.3576L79.1864 76.6476C79.4096 76.5477 79.6025 76.3906 79.7454 76.1921C79.8883 75.9937 79.9762 75.7609 80 75.5175V68.4585C79.9928 68.2943 79.9509 68.1334 79.8768 67.9867C79.8028 67.8399 79.6984 67.7106 79.5706 67.6072L73.4909 71.1179L41.3599 89.6507Z" fill="#C8E2FF"/>
<path d="M79.1864 69.5884L43.3187 90.2985C42.7114 90.6056 42.0404 90.7657 41.3599 90.7657C40.6794 90.7657 40.0084 90.6056 39.4011 90.2985L3.53336 69.5884C3.30872 69.4905 3.1146 69.3339 2.97142 69.1351C2.82825 68.9362 2.7413 68.7024 2.71973 68.4584C2.72691 68.2941 2.76891 68.1333 2.84294 67.9866C2.91697 67.8398 3.02135 67.7104 3.14915 67.6071C3.26535 67.4988 3.39438 67.4052 3.53336 67.3283L39.4011 46.6258C40.008 46.3174 40.6792 46.1567 41.3599 46.1567C42.0406 46.1567 42.7118 46.3174 43.3187 46.6258L79.1864 67.3283C80.2637 67.9536 80.2637 68.9706 79.1864 69.5884Z" fill="#DCEEFF"/>
<path d="M41.3524 46.912C41.9047 46.9004 42.4513 47.0273 42.942 47.2812L78.8098 67.9837C79.1262 68.1645 79.2392 68.3529 79.2392 68.4659C79.2392 68.5789 79.1262 68.7521 78.8098 68.9405L42.942 89.6505C42.4499 89.8886 41.9103 90.0123 41.3637 90.0123C40.817 90.0123 40.2774 89.8886 39.7854 89.6505L3.90251 68.9329C3.63883 68.7823 3.47309 68.6015 3.47309 68.4583C3.49593 68.3378 3.56314 68.2303 3.66144 68.157C3.73674 68.0891 3.82026 68.0308 3.91005 67.9837L39.7778 47.2812C40.263 47.027 40.8048 46.9 41.3524 46.912ZM41.3524 46.1587C40.6728 46.1461 40.0013 46.3068 39.4011 46.6258L3.53336 67.3283C3.39438 67.4051 3.26535 67.4988 3.14915 67.607C3.02135 67.7104 2.91697 67.8398 2.84294 67.9865C2.76891 68.1333 2.72691 68.2941 2.71973 68.4583C2.7413 68.7024 2.82825 68.9362 2.97142 69.135C3.1146 69.3339 3.30872 69.4905 3.53336 69.5884L39.4011 90.2984C40.0084 90.6056 40.6794 90.7657 41.3599 90.7657C42.0404 90.7657 42.7114 90.6056 43.3187 90.2984L79.1864 69.5884C80.2637 68.9706 80.2637 67.9536 79.1864 67.3283L43.3187 46.6258C42.7132 46.3065 42.0367 46.1458 41.3524 46.1587Z" fill="white"/>
<path d="M40.0491 51.5454L12.054 67.7127C11.3007 68.127 11.3007 68.7975 12.054 69.2194L40.0416 85.3791C40.4471 85.5832 40.8947 85.6894 41.3487 85.6894C41.8026 85.6894 42.2503 85.5832 42.6558 85.3791L70.6509 69.2194C71.4043 68.7975 71.4043 68.127 70.6509 67.7127L42.6633 51.5454C42.2578 51.3414 41.8102 51.2351 41.3562 51.2351C40.9023 51.2351 40.4546 51.3414 40.0491 51.5454Z" fill="#344593"/>
<path d="M70.6507 67.7126L42.6632 51.5453C42.2619 51.333 41.8139 51.2242 41.3599 51.2289V52.5548L70.4247 69.3474L70.6507 69.2193C71.374 68.7974 71.374 68.1269 70.6507 67.7126Z" fill="#1E3779"/>
<path d="M41.36 51.2289C40.9042 51.2213 40.4536 51.3275 40.0491 51.5378L12.054 67.7126C11.3007 68.1269 11.3007 68.7974 12.054 69.2193L12.28 69.3474L41.36 52.5624V51.2289Z" fill="#031F60"/>
<path d="M32.1763 59.6289L41.3523 64.9326V36.6587L32.1763 31.3625V59.6289Z" fill="#4695FF"/>
<path d="M41.3523 64.9326L50.5358 59.6289V31.3625L41.3523 36.6587V64.9326Z" fill="#3E85E4"/>
<path d="M50.5358 31.3625L41.3523 26.0588L32.1763 31.3625L41.3523 36.6587L50.5358 31.3625Z" fill="#C4DDFF"/>
<path d="M41.3522 64.9328C41.2577 64.8456 41.1854 64.7371 41.1413 64.6164C41.0623 64.3219 41.0393 64.0153 41.0735 63.7123C41.0735 62.959 41.0735 61.8364 41.0735 60.5105C41.0735 57.8662 41.0735 54.3254 41.1262 50.7921C41.179 47.2588 41.194 43.7255 41.2618 41.0812C41.3296 38.4369 41.3447 36.6589 41.3447 36.6589C41.3447 36.6589 41.3447 38.4293 41.4351 41.0812C41.5255 43.733 41.5255 47.2588 41.5707 50.7921C41.6159 54.3254 41.5707 57.8662 41.6159 60.5105C41.6159 61.8364 41.6159 62.9439 41.6159 63.7123C41.6501 64.0153 41.6271 64.3219 41.5481 64.6164C41.5084 64.7357 41.4413 64.844 41.3522 64.9328Z" fill="white"/>
<path d="M50.536 31.3626C50.5449 31.4427 50.5449 31.5236 50.536 31.6037C50.536 31.7317 50.4004 31.7543 50.2798 31.8297L49.2402 32.3947C48.3738 32.8919 47.2212 33.5398 46.0534 34.1727C44.8857 34.8055 43.6954 35.4684 42.8366 35.9129C41.9777 36.3574 41.3298 36.6663 41.3298 36.6663C41.3298 36.6663 41.8798 36.2972 42.7236 35.7623C43.5673 35.2274 44.6823 34.5267 45.8124 33.8261C46.9424 33.1255 48.0725 32.455 48.9388 31.9578L49.9785 31.3551C50.1066 31.2873 50.1819 31.1893 50.3024 31.2421C50.3859 31.2703 50.4646 31.311 50.536 31.3626Z" fill="white"/>
<path d="M47.4773 68.4584L56.6533 73.7621L56.6608 49.029L47.4773 43.7253V68.4584Z" fill="#4695FF"/>
<path d="M56.6533 73.7621L65.8368 68.4584V43.7253L56.6609 49.029L56.6533 73.7621Z" fill="#3E85E4"/>
<path d="M65.8368 43.7253L56.6533 38.4216L47.4773 43.7253L56.6608 49.029L65.8368 43.7253Z" fill="#C4DDFF"/>
<path d="M56.6533 73.7622C56.5631 73.6862 56.491 73.591 56.4424 73.4835C56.3713 73.2391 56.3482 72.9832 56.3746 72.7301C56.3746 72.0521 56.3746 71.0878 56.3746 69.9276C56.3746 67.6072 56.3746 64.5184 56.4198 61.4221C56.465 58.3257 56.4951 55.2445 56.5554 52.9241C56.6157 50.6037 56.6458 49.0593 56.6458 49.0593C56.6458 49.0593 56.6835 50.5661 56.7362 52.9241C56.7889 55.2821 56.8191 58.3333 56.8643 61.4221C56.9095 64.5109 56.8643 67.6072 56.9095 69.9276C56.9095 71.0878 56.9095 72.0521 56.9095 72.7301C56.9359 72.9832 56.9128 73.2391 56.8417 73.4835C56.8007 73.5894 56.7363 73.6847 56.6533 73.7622Z" fill="white"/>
<path d="M65.8368 43.6952C65.8497 43.775 65.8497 43.8564 65.8368 43.9363C65.8368 44.0719 65.7011 44.0869 65.5806 44.1698L64.541 44.765C63.6821 45.2547 62.5219 45.9101 61.3618 46.5354C60.2016 47.1607 59.0339 47.801 58.1373 48.2455C57.2408 48.69 56.6306 48.9989 56.6306 48.9989C56.6306 48.9989 57.1806 48.6222 58.0168 48.0873C58.853 47.5524 59.9831 46.8593 61.1056 46.1587C62.2281 45.4581 63.3657 44.7876 64.2321 44.2828L65.2717 43.6801C65.3998 43.6123 65.4751 43.5219 65.5957 43.5747C65.6826 43.6 65.7643 43.6409 65.8368 43.6952Z" fill="white"/>
<path d="M16.8679 68.4585L26.0515 73.7621V45.4958L16.8679 40.1921V68.4585Z" fill="#4695FF"/>
<path d="M26.0515 73.7621L35.2351 68.4585L35.2275 40.1921L26.0515 45.4958V73.7621Z" fill="#3E85E4"/>
<path d="M35.2275 40.1921L26.0515 34.8884L16.8679 40.1921L26.0515 45.4958L35.2275 40.1921Z" fill="#C4DDFF"/>
<path d="M26.0515 73.7622C25.9538 73.6763 25.8787 73.5676 25.833 73.4457C25.7578 73.1532 25.7348 72.8497 25.7652 72.5492C25.7652 71.7959 25.7652 70.6734 25.7652 69.3474C25.7652 66.6956 25.7652 63.1623 25.8104 59.629C25.8556 56.0957 25.8782 52.5624 25.946 49.9106C26.0138 47.2587 26.0364 45.4958 26.0364 45.4958C26.0364 45.4958 26.0741 47.2587 26.1268 49.9106C26.1796 52.5624 26.2097 56.0957 26.2549 59.629C26.3001 63.1623 26.2926 66.6956 26.3001 69.3474C26.3001 70.6734 26.3001 71.7733 26.3001 72.5492C26.3306 72.8497 26.3076 73.1532 26.2323 73.4457C26.1965 73.5634 26.1347 73.6716 26.0515 73.7622Z" fill="white"/>
<path d="M35.2275 40.192C35.2404 40.2719 35.2404 40.3533 35.2275 40.4331C35.2275 40.5687 35.0994 40.5838 34.9789 40.6666L33.9016 41.2618C33.0427 41.7515 31.8825 42.3994 30.7224 43.0322C29.5622 43.665 28.3945 44.2979 27.4979 44.7424C26.6014 45.1868 25.9912 45.4957 25.9912 45.4957C25.9912 45.4957 26.5412 45.119 27.3774 44.5842C28.2136 44.0493 29.3437 43.3562 30.4662 42.6555C31.5887 41.9549 32.7263 41.2844 33.6002 40.7797L34.6323 40.177C34.7604 40.1092 34.8433 40.0187 34.9638 40.0715C35.0587 40.0942 35.1482 40.1352 35.2275 40.192Z" fill="white"/>
<path d="M32.1763 77.2954L41.3523 82.5991L41.3598 61.3919L32.1763 56.0957V77.2954Z" fill="#4695FF"/>
<path d="M41.3523 82.5991L50.5358 77.2954V56.0957L41.3598 61.3919L41.3523 82.5991Z" fill="#3E85E4"/>
<path d="M50.5358 56.0957L41.3523 50.792L32.1763 56.0957L41.3598 61.3919L50.5358 56.0957Z" fill="#C4DDFF"/>
<path d="M41.3524 82.5991C41.2642 82.5363 41.192 82.4538 41.1415 82.358C41.0667 82.1429 41.0434 81.9133 41.0736 81.6875C41.0736 81.1074 41.0736 80.2787 41.0736 79.2843C41.0736 77.2954 41.0737 74.6436 41.1189 71.9992C41.1641 69.3549 41.1942 66.7257 41.2469 64.7067C41.2997 62.6876 41.3449 61.3918 41.3449 61.3918C41.3449 61.3918 41.3825 62.7178 41.4353 64.7067C41.488 66.6955 41.5181 69.3474 41.5633 71.9992C41.6085 74.6511 41.5633 77.2728 41.6085 79.2843C41.6085 80.2787 41.6085 81.1074 41.6085 81.6875C41.6388 81.9133 41.6155 82.1429 41.5407 82.358C41.4974 82.4518 41.4329 82.5343 41.3524 82.5991Z" fill="white"/>
<path d="M50.536 56.0957C50.5489 56.1755 50.5489 56.2569 50.536 56.3368C50.536 56.4648 50.4004 56.4874 50.2798 56.5628L49.2402 57.1579C48.3738 57.6552 47.2212 58.3031 46.061 58.9359C44.9008 59.5687 43.6954 60.2015 42.8366 60.646C41.9777 61.0905 41.3298 61.3994 41.3298 61.3994C41.3298 61.3994 41.8798 61.0302 42.716 60.4954C43.5523 59.9605 44.6823 59.2598 45.8048 58.5592C46.9273 57.8586 48.0649 57.1881 48.9313 56.6908L49.971 56.0882C50.099 56.0203 50.1744 55.9224 50.2949 55.9827C50.3813 56.0057 50.463 56.044 50.536 56.0957Z" fill="white"/>
<path opacity="0.3" d="M43.311 16.0919C42.7214 16.4447 42.0377 16.6077 41.3523 16.559V85.6879C41.8042 85.6825 42.2493 85.577 42.6556 85.379L70.4247 69.3474C70.9445 69.0611 71.1781 68.805 71.1781 68.4584V0L43.311 16.0919Z" fill="url(#paint0_linear)"/>
<path opacity="0.5" d="M41.3222 16.5741C41.1564 16.5741 40.9907 16.5741 40.825 16.5741C40.668 16.5544 40.5121 16.5267 40.3579 16.4912C40.2599 16.4912 40.162 16.4309 40.0641 16.4008L39.8833 16.3481C39.7284 16.2871 39.5774 16.2166 39.4312 16.1371L11.5115 0V68.4584C11.5261 68.6211 11.5842 68.7768 11.6796 68.9093C11.775 69.0419 11.9043 69.1463 12.0539 69.2118L40.049 85.379C40.4439 85.5704 40.8759 85.6733 41.3147 85.6804V16.5741H41.3222Z" fill="url(#paint1_linear)"/>
<path d="M19.2937 46.1135C18.5745 46.0149 17.8499 45.9621 17.124 45.9553C16.4921 46.0541 15.8456 45.9972 15.2406 45.7896C14.4872 45.5334 12.6189 44.0041 11.0594 42.3919C9.37758 40.5576 8.01976 38.4509 7.04396 36.1616C5.98171 33.3515 5.09274 29.1176 4.57292 27.4526C4.05309 25.7877 3.25452 25.4186 2.26008 25.1925C1.08483 24.9364 0.0677836 25.8103 0.51227 28.2814C1.18863 31.6681 2.24238 34.9683 3.65381 38.1203C4.76284 40.4327 6.24693 42.5455 8.04594 44.3733C9.61477 45.9264 11.3652 47.2848 13.2592 48.4188C13.8017 48.7729 14.1181 49.1722 15.0748 49.9256C16.0124 50.7361 17.1355 51.3028 18.3445 51.5754C19.3766 51.7487 19.7683 51.6508 19.8964 51.4549C20.0245 51.259 19.8964 50.9954 19.4293 50.8673C18.6865 50.7211 17.9751 50.4457 17.3274 50.0536C17.3274 50.0536 18.3143 50.3927 18.9246 50.5433C19.4692 50.6765 20.029 50.7373 20.5895 50.7241C21.1319 50.7241 21.5538 50.0235 21.0942 49.8804C20.6347 49.7372 20.2429 49.7448 19.3389 49.5112C18.8599 49.3911 18.3971 49.2141 17.9602 48.9839C18.5712 49.1045 19.191 49.1751 19.8135 49.1948C20.3134 49.2446 20.8168 49.145 21.26 48.9085C21.4935 48.7805 21.6141 48.3209 21.0189 48.2154C20.2558 48.2041 19.4969 48.1004 18.7588 47.9066C18.0054 47.6579 17.561 47.3867 17.6966 47.3114C17.8322 47.2361 18.239 47.4093 18.8944 47.3114C19.5498 47.2135 20.0772 46.7464 19.9943 46.3998C19.9115 46.0533 19.9567 46.1211 19.2937 46.1135Z" fill="#FFA8A7"/>
<path d="M1.50679 25.057C0.271272 25.5693 -0.316354 26.9178 0.173334 29.3813C0.663022 31.8448 1.68007 35.4082 1.68007 35.4082C3.41634 35.3276 5.07267 34.655 6.37354 33.5022C6.37354 33.5022 5.22842 28.2814 4.78394 26.9328C4.33945 25.5843 3.15667 24.3639 1.50679 25.057Z" fill="#E4F2F2"/>
</g>
<defs>
<filter id="filter0_f" x="-5.28027" y="61.2256" width="93.2747" height="60.6089" filterUnits="userSpaceOnUse" color-interpolation-filters="sRGB">
<feFlood flood-opacity="0" result="BackgroundImageFix"/>
<feBlend mode="normal" in="SourceGraphic" in2="BackgroundImageFix" result="shape"/>
<feGaussianBlur stdDeviation="4" result="effect1_foregroundBlur"/>
</filter>
<linearGradient id="paint0_linear" x1="71.2158" y1="69.1666" x2="47.4018" y2="27.2267" gradientUnits="userSpaceOnUse">
<stop stop-color="#57F7E0"/>
<stop offset="0.04" stop-color="#57F7E0" stop-opacity="0.91"/>
<stop offset="0.14" stop-color="#57F7E0" stop-opacity="0.7"/>
<stop offset="0.25" stop-color="#57F7E0" stop-opacity="0.51"/>
<stop offset="0.36" stop-color="#57F7E0" stop-opacity="0.35"/>
<stop offset="0.47" stop-color="#57F7E0" stop-opacity="0.22"/>
<stop offset="0.59" stop-color="#57F7E0" stop-opacity="0.13"/>
<stop offset="0.71" stop-color="#57F7E0" stop-opacity="0.06"/>
<stop offset="0.84" stop-color="#57F7E0" stop-opacity="0.01"/>
<stop offset="1" stop-color="#57F7E0" stop-opacity="0"/>
</linearGradient>
<linearGradient id="paint1_linear" x1="467.913" y1="7886.02" x2="2742.62" y2="6478.61" gradientUnits="userSpaceOnUse">
<stop stop-color="#57F7E0"/>
<stop offset="0.04" stop-color="#57F7E0" stop-opacity="0.91"/>
<stop offset="0.14" stop-color="#57F7E0" stop-opacity="0.7"/>
<stop offset="0.25" stop-color="#57F7E0" stop-opacity="0.51"/>
<stop offset="0.36" stop-color="#57F7E0" stop-opacity="0.35"/>
<stop offset="0.47" stop-color="#57F7E0" stop-opacity="0.22"/>
<stop offset="0.59" stop-color="#57F7E0" stop-opacity="0.13"/>
<stop offset="0.71" stop-color="#57F7E0" stop-opacity="0.06"/>
<stop offset="0.84" stop-color="#57F7E0" stop-opacity="0.01"/>
<stop offset="1" stop-color="#57F7E0" stop-opacity="0"/>
</linearGradient>
<clipPath id="clip0">
<rect width="80" height="121.834" fill="white"/>
</clipPath>
</defs>
</svg>
