<svg width="80" height="106" viewBox="0 0 80 106" fill="none" xmlns="http://www.w3.org/2000/svg">
<g clip-path="url(#clip0)">
<g style="mix-blend-mode:multiply" opacity="0.15">
<path d="M79.7837 95.2704L19.7957 60.625C19.6349 60.5422 19.4567 60.499 19.2758 60.499C19.095 60.499 18.9168 60.5422 18.756 60.625L17.3498 61.4423C17.0613 61.6105 17.0613 61.881 17.3498 62.0432L77.3437 96.6827C77.506 96.7605 77.6836 96.8009 77.8636 96.8009C78.0435 96.8009 78.2212 96.7605 78.3834 96.6827L79.7837 95.8714C80.0721 95.7091 80.0721 95.4387 79.7837 95.2704Z" fill="#B8CEEA"/>
</g>
<g style="mix-blend-mode:multiply" opacity="0.15">
<path d="M35.3485 89.0685L31.1418 86.6226C28.2632 84.9639 24.2969 84.5673 22.2716 85.7332C20.2464 86.899 20.9435 89.1887 23.8161 90.8533L28.0529 93.2993C30.9255 94.9579 34.8978 95.3545 36.9171 94.1887C38.9363 93.0228 38.2211 90.7452 35.3485 89.0685Z" fill="#6B99D1"/>
</g>
<path d="M26.6226 90.1081C26.6226 90.1081 26.4002 90.4987 25.1863 89.9939C24.5679 89.7875 24.0271 89.3976 23.6358 88.8761C23.6358 88.8761 23.9483 86.4723 24.6995 87.0733C25.4507 87.6742 26.6226 90.1081 26.6226 90.1081Z" fill="#291D51"/>
<path d="M23.5817 81.5925C23.5817 82.8666 23.6298 83.8461 23.149 84.5312C22.8817 84.865 22.7002 85.259 22.6202 85.6791C23.4637 85.8127 24.2336 86.238 24.7957 86.881C25.5288 87.8726 25.4868 88.8642 26.1659 89.0264C26.845 89.1887 27.9688 88.4255 27.9688 88.4255C27.7265 88.3908 27.5007 88.2831 27.3213 88.1166C27.142 87.9502 27.0177 87.7329 26.9651 87.494C26.5661 86.3934 26.227 85.2719 25.9495 84.1346C25.9495 83.6238 25.9495 81.6706 25.9495 81.6706L23.5817 81.5925Z" fill="#F28F8F"/>
<path d="M23.5636 84.8617C23.9722 84.9461 24.3563 85.1219 24.6873 85.3758C25.0183 85.6298 25.2874 85.9553 25.4747 86.3281C25.7932 87.0552 26.3221 88.0709 26.7307 88.3052C27.1394 88.5396 27.8605 88.1971 28.4795 88.1971C29.0985 88.1971 29.5312 88.4735 29.5673 88.9242L27.0012 90.1262C26.4002 90.4086 25.9074 90.4146 25.4447 89.1887C24.9819 87.9627 24.8016 87.2656 24.435 88.1009C24.156 88.983 23.9806 89.8946 23.9122 90.8173C23.7714 90.8671 23.617 90.8627 23.4792 90.805C23.3415 90.7472 23.2302 90.6402 23.167 90.5048C23.1748 89.9565 23.1446 89.4083 23.0769 88.8641C22.9687 88.1129 22.2836 87.1574 22.3377 86.25C22.3918 85.3425 22.9086 84.8197 23.5636 84.8617Z" fill="#2D2979"/>
<path d="M26.6226 70.7812L23.5276 71.0516C23.1697 71.7633 22.9302 72.5285 22.8185 73.3173C21.9471 75.5829 23.5216 81.4603 23.3714 84.1346C23.3714 84.1346 24.7836 84.8858 25.9495 84.1706C25.9495 84.1706 27.1514 72.7523 27.3738 70.7151L26.6226 70.7812Z" fill="#F28F8F"/>
<path d="M32.9807 93.113C32.9807 93.113 32.7584 93.5036 31.5444 92.9928C30.9249 92.7918 30.3831 92.4033 29.9939 91.881C29.9939 91.881 30.3064 89.4772 31.0576 90.0781C31.8088 90.6791 32.9807 93.113 32.9807 93.113Z" fill="#291D51"/>
<path d="M29.9339 84.5974C29.9339 85.8714 29.988 86.851 29.5012 87.5301C29.237 87.8673 29.0577 88.263 28.9783 88.6839C29.8218 88.8176 30.5917 89.2429 31.1538 89.8859C31.887 90.8774 31.8449 91.869 32.524 92.0313C33.2031 92.1935 34.3269 91.4303 34.3269 91.4303C34.0847 91.3957 33.8588 91.2879 33.6795 91.1215C33.5001 90.955 33.3759 90.7378 33.3233 90.4988C32.9207 89.3994 32.5816 88.2778 32.3077 87.1395C32.3077 86.6347 32.3077 84.6755 32.3077 84.6755L29.9339 84.5974Z" fill="#FFA8A7"/>
<path d="M29.9219 87.8666C30.3301 87.9518 30.7139 88.1279 31.0448 88.3817C31.3756 88.6356 31.645 88.9607 31.833 89.333C32.1515 90.0541 32.6803 91.0757 33.089 91.3041C33.4977 91.5325 34.2188 91.2019 34.8378 91.1959C35.4568 91.1899 35.8895 91.4784 35.9255 91.9291L33.3594 93.131C32.7585 93.4135 32.2657 93.4195 31.8029 92.1935C31.3402 90.9676 31.1599 90.2705 30.7933 91.1058C30.5113 91.9871 30.3357 92.8991 30.2705 93.8221C30.1297 93.872 29.9753 93.8676 29.8375 93.8098C29.6998 93.7521 29.5884 93.645 29.5253 93.5096C29.5296 92.9614 29.4995 92.4135 29.4352 91.869C29.327 91.1178 28.6419 90.1623 28.696 89.2548C28.7501 88.3474 29.2428 87.8245 29.9219 87.8666Z" fill="#2D2979"/>
<path d="M29.1707 76.6105C28.3353 77.9747 29.345 81.6946 29.7716 87.0672C30.1411 87.3293 30.5744 87.4872 31.0259 87.5242C31.4774 87.5612 31.9305 87.476 32.3378 87.2776C32.3378 87.2776 33.4916 76.0816 33.6959 74.0564" fill="#FFA8A7"/>
<path d="M16.5024 51.1779L74.6334 84.7356L76.6226 85.8774L78.9964 84.5132C79.1463 84.4131 79.2711 84.2797 79.3608 84.1232C79.4504 83.9668 79.5026 83.7917 79.5132 83.6118V35.2223C79.5092 35.0101 79.449 34.8028 79.3389 34.6214C79.2373 34.4373 79.0904 34.2822 78.9122 34.1707L19.9038 0.126182C19.743 0.0434206 19.5648 0.000244141 19.384 0.000244141C19.2031 0.000244141 19.0249 0.0434206 18.8641 0.126182L16.5024 1.49037V51.1779Z" fill="#1E3779"/>
<path d="M74.6334 37.3497V84.7355L76.6226 85.8773L78.9964 84.5132C79.1463 84.4131 79.2711 84.2796 79.3608 84.1232C79.4504 83.9668 79.5026 83.7917 79.5132 83.6117V35.2223C79.5092 35.0101 79.449 34.8028 79.3389 34.6213L74.6334 37.3497Z" fill="#031F60"/>
<path d="M75.5109 35.0361L17.6082 1.60457C16.7428 1.11178 16.0457 1.51443 16.0457 2.50601V49.6394C16.0746 50.1814 16.2312 50.7089 16.5027 51.1789C16.7743 51.6489 17.1531 52.048 17.6082 52.3437L75.5109 85.7752C76.3702 86.274 77.0734 85.8714 77.0734 84.8738V37.7404C77.0426 37.1988 76.8852 36.672 76.6138 36.2023C76.3425 35.7327 75.9647 35.3332 75.5109 35.0361Z" fill="#7BA8E4"/>
<path opacity="0.2" d="M65.7212 35.0361L7.81253 1.60457C6.95315 1.11178 6.25003 1.51443 6.25003 2.50601V49.6394C6.28033 50.1811 6.43753 50.7081 6.70894 51.1778C6.98035 51.6476 7.35838 52.047 7.81253 52.3437L65.7212 85.7752C66.5806 86.274 67.2837 85.8714 67.2837 84.8738V37.7404C67.2529 37.1988 67.0955 36.672 66.8242 36.2023C66.5528 35.7327 66.175 35.3332 65.7212 35.0361Z" fill="#E9FFFB"/>
<path d="M65.7212 35.0361L7.81252 1.60457C6.95315 1.11178 6.25003 1.51443 6.25003 2.50601V49.6394C6.28033 50.1811 6.43753 50.7081 6.70894 51.1778C6.98035 51.6476 7.35838 52.047 7.81252 52.3437L65.7212 85.7752C66.5806 86.274 67.2837 85.8714 67.2837 84.8738V37.7404C67.2529 37.1988 67.0955 36.672 66.8242 36.2023C66.5528 35.7327 66.175 35.3332 65.7212 35.0361V35.0361Z" stroke="#A3C4EB" stroke-miterlimit="10"/>
<path d="M53.9002 42.2898L53.4495 42.0253C52.8806 41.662 52.2196 41.469 51.5445 41.469C50.8694 41.469 50.2084 41.662 49.6394 42.0253C49.0745 42.4039 47.6382 43.1792 47.6382 43.1792L46.863 47.4941C46.6893 47.9907 46.4058 48.4417 46.0337 48.8135C45.6615 49.1853 45.2103 49.4684 44.7135 49.6417C44.2168 49.815 43.6874 49.8739 43.1647 49.8143C42.6421 49.7546 42.1396 49.5778 41.6947 49.297H41.6587C40.5841 48.5959 39.675 47.6694 38.9942 46.5819C38.3135 45.4944 37.8774 44.2718 37.7163 42.9989L35.8594 27.7345C35.7169 26.4861 35.3045 25.2836 34.6507 24.2106C33.9969 23.1375 33.1174 22.2196 32.0733 21.5205C31.5948 21.2273 31.049 21.0617 30.4882 21.0397C29.9274 21.0176 29.3703 21.1397 28.8702 21.3943C28.113 21.791 26.4663 22.7946 26.4663 22.7946L24.8438 31.9713C24.0385 34.1527 21.9411 35.0842 20.1623 34.0566C19.7373 33.7899 19.2457 33.6484 18.744 33.6484C18.2423 33.6484 17.7507 33.7899 17.3257 34.0566C16.6526 34.4893 15.3185 35.2585 15.3185 35.2585L13.6178 44.3871L57.5601 72.5722L60 71.166L57.9447 48.5758C57.7545 47.3013 57.2956 46.0817 56.5983 44.998C55.901 43.9142 54.9813 42.9911 53.9002 42.2898Z" fill="#539CFF"/>
<path d="M51.4604 43.6958L51.0097 43.4374C50.5764 43.1533 50.0846 42.9707 49.5708 42.9034C49.0571 42.8361 48.5348 42.8858 48.043 43.0487C47.5511 43.2117 47.1025 43.4838 46.7307 43.8445C46.3588 44.2053 46.0733 44.6455 45.8955 45.1321L44.4231 48.9302C44.2494 49.4268 43.9659 49.8778 43.5938 50.2496C43.2216 50.6214 42.7704 50.9045 42.2737 51.0778C41.777 51.2511 41.2476 51.3101 40.7249 51.2504C40.2022 51.1907 39.6997 51.0139 39.2549 50.7331H39.2128C38.1394 50.0314 37.2314 49.1047 36.5517 48.0172C35.872 46.9297 35.4369 45.7074 35.2765 44.435L33.4195 29.1706C33.3063 27.9149 32.906 26.7021 32.2495 25.6257C31.5931 24.5493 30.698 23.6382 29.6335 22.9627C27.7164 21.8389 25.4928 22.7043 24.7116 24.8797L22.4039 33.4014C21.6046 35.5769 19.5073 36.5144 17.7284 35.4867C15.9496 34.4591 14.0085 35.4446 13.4015 37.6862L11.1839 45.7992L57.5421 72.5781L55.4808 49.9879C55.292 48.715 54.8362 47.4964 54.1434 46.412C53.4505 45.3276 52.5362 44.402 51.4604 43.6958Z" fill="#DDEBFF"/>
<path d="M57.1635 36.5506C57.1635 37.0313 56.7308 37.1515 56.1959 36.8631L47.5481 31.8811C47.2885 31.7328 47.0666 31.5266 46.8999 31.2785C46.7331 31.0304 46.6258 30.7471 46.5865 30.4508C46.5865 29.97 47.0192 29.8498 47.5481 30.1383L56.2079 35.1203C56.4667 35.2689 56.6876 35.4753 56.8533 35.7234C57.0191 35.9715 57.1252 36.2546 57.1635 36.5506Z" fill="#539CFF"/>
<path d="M57.1635 40.0781C57.1635 40.5589 56.7308 40.6791 56.1959 40.3906L47.5481 35.4087C47.2891 35.2597 47.0677 35.0533 46.901 34.8053C46.7343 34.5574 46.6267 34.2745 46.5865 33.9784C46.5865 33.4976 47.0192 33.3774 47.5481 33.6659L56.2079 38.6479C56.4667 38.7964 56.6876 39.0029 56.8533 39.251C57.0191 39.4991 57.1252 39.7822 57.1635 40.0781Z" fill="#539CFF"/>
<g style="mix-blend-mode:multiply" opacity="0.15" filter="url(#filter0_f)">
<path d="M0.642975 95.6429L14.6093 87.578C15.0935 87.3321 15.6288 87.2039 16.1718 87.2039C16.7149 87.2039 17.2502 87.3321 17.7343 87.578L31.7007 95.6429C32.5601 96.1357 32.5601 96.947 31.7007 97.4458L17.7343 105.505C17.2502 105.751 16.7149 105.879 16.1718 105.879C15.6288 105.879 15.0935 105.751 14.6093 105.505L0.642975 97.4458C-0.2164 96.947 -0.2164 96.1537 0.642975 95.6429Z" fill="#A7C8F0"/>
</g>
<path d="M0.642975 78.3593L14.6093 70.3124C15.0935 70.0664 15.6288 69.9382 16.1718 69.9382C16.7149 69.9382 17.2502 70.0664 17.7343 70.3124L31.7007 78.3593C32.5601 78.8581 32.5601 79.6634 31.7007 80.1622L17.7343 88.2271C17.2502 88.473 16.7149 88.6012 16.1718 88.6012C15.6288 88.6012 15.0935 88.473 14.6093 88.2271L0.642975 80.1622C-0.2164 79.6634 -0.2164 78.8581 0.642975 78.3593Z" fill="#DCEEFF"/>
<path d="M16.1718 70.5228C15.7331 70.5133 15.299 70.6145 14.9098 70.8173L0.943457 78.8822C0.691051 79.0264 0.600912 79.1767 0.600912 79.2608C0.600912 79.345 0.691051 79.4952 0.943457 79.6394L14.9098 87.7043C15.3024 87.8978 15.7342 87.9985 16.1718 87.9985C16.6095 87.9985 17.0413 87.8978 17.4338 87.7043L31.4002 79.6394C31.6526 79.4952 31.7428 79.345 31.7428 79.2608C31.7428 79.1767 31.6526 79.0264 31.4002 78.8822L17.4338 70.8173C17.0447 70.6145 16.6106 70.5133 16.1718 70.5228ZM16.1718 69.9219C16.7157 69.9124 17.2532 70.0406 17.7343 70.2945L31.7007 78.3594C32.5601 78.8582 32.5601 79.6635 31.7007 80.1623L17.7343 88.2272C17.2499 88.4722 16.7147 88.5999 16.1718 88.5999C15.629 88.5999 15.0937 88.4722 14.6093 88.2272L0.642975 80.1623C-0.2164 79.6635 -0.2164 78.8582 0.642975 78.3594L14.6093 70.3125C15.0904 70.0586 15.6279 69.9304 16.1718 69.9399V69.9219Z" fill="white"/>
<path d="M-3.8147e-06 93.3533C0.017271 93.5472 0.0859642 93.7329 0.199003 93.8914C0.312041 94.0499 0.465322 94.1753 0.643022 94.2547L14.6094 102.32C15.0899 102.575 15.6278 102.703 16.1719 102.692V88.5997C15.628 88.6092 15.0905 88.481 14.6094 88.2271L0.643022 80.1622C0.465322 80.0827 0.312041 79.9573 0.199003 79.7988C0.0859642 79.6404 0.017271 79.4546 -3.8147e-06 79.2607V93.3533Z" fill="#A5CBFA"/>
<path d="M32.3438 93.3533C32.3265 93.5472 32.2578 93.7329 32.1447 93.8914C32.0317 94.0499 31.8784 94.1753 31.7007 94.2547L17.7344 102.32C17.2538 102.575 16.716 102.703 16.1719 102.692V88.5997C16.7158 88.6092 17.2533 88.481 17.7344 88.2271L31.7007 80.1622C31.8784 80.0827 32.0317 79.9573 32.1447 79.7988C32.2578 79.6404 32.3265 79.4546 32.3438 79.2607V93.3533Z" fill="#C8E2FF"/>
<path d="M13.4435 47.536C14.569 46.7412 15.9554 46.4059 17.3197 46.5985C18.1213 46.7879 18.8339 47.246 19.3389 47.8966C19.7946 48.6094 19.9521 49.4727 19.7776 50.3005C19.7369 50.5864 19.6115 50.8537 19.4177 51.0679C19.2238 51.282 18.9704 51.4334 18.6899 51.5024C18.3309 51.5332 17.9708 51.4558 17.6562 51.28C17.4185 51.1198 17.1971 50.9367 16.9952 50.7332C16.5625 50.3846 16.1418 50.018 15.7211 49.6514C15.0361 49.0385 14.363 48.4155 13.7019 47.7824C13.7019 47.7824 13.4495 47.53 13.4435 47.536Z" fill="#584B88"/>
<path d="M23.4316 67.8424C21.9592 68.3773 12.5241 72.1092 12.5241 72.1092C12.5241 72.1092 12.9147 79.1585 15.0421 78.0227L24.7777 72.1153L27.3739 70.691C27.6022 68.3833 25.0481 67.2535 23.4316 67.8424Z" fill="#F28F8F"/>
<path d="M33.6659 74.0384C33.8942 71.7367 31.3401 70.6009 29.7235 71.1899C28.2512 71.7247 18.6178 75.1262 18.6178 75.1262L10.036 74.6274C8.56369 78.143 11.0997 79.8978 13.8582 81.1117C16.6166 82.3257 19.2067 82.512 21.3341 81.3701L31.0697 75.4567L29.8197 74.405C29.4894 75.1017 29.2704 75.8459 29.1707 76.6105" fill="#FFA8A7"/>
<path d="M18.9664 50.601C18.6539 48.5457 17.1635 46.9953 15.0481 47.1094C14.195 47.154 13.3775 47.4656 12.7111 48.0002C12.0447 48.5347 11.5632 49.2652 11.3347 50.0884C11.1062 50.9115 11.1421 51.7857 11.4375 52.5873C11.7329 53.3889 12.2728 54.0773 12.9808 54.5553C13.0888 54.764 13.2112 54.9648 13.3474 55.1563C13.3474 55.1563 13.0589 56.5806 13.0048 56.7789C12.8486 57.3378 12.7224 57.1635 11.1298 57.1816C10.3786 57.1816 10.6671 57.3198 11.0758 58.2873C11.4363 59.1527 12.8786 60.0121 14.1707 60.1683C15.4628 60.3246 17.5 59.4171 16.7488 58.8943C15.9976 58.3715 15.6431 58.2933 15.7272 57.8727C15.8173 57.4315 15.9398 56.9977 16.0938 56.5746C16.3819 56.6676 16.6775 56.736 16.9772 56.7789C17.8185 56.851 18.1791 56.214 18.5758 55.3005C19.1232 53.797 19.2581 52.1743 18.9664 50.601Z" fill="#FFA8A7"/>
<path d="M16.0937 56.5684C16.3819 56.6615 16.6774 56.7298 16.9771 56.7728C17.1562 56.7925 17.3373 56.7699 17.506 56.7067C17.2209 56.5974 16.9551 56.4432 16.7187 56.2499C16.1178 55.7451 16.2019 54.6393 16.2139 54.0264L15.9916 54.6273L15.5889 55.0059L13.9964 55.4266L13.3173 55.3485C13.2392 55.7211 13.0468 56.6405 13.0048 56.8028C12.8485 57.3617 12.7223 57.1874 11.1298 57.2055C10.3786 57.2055 10.667 57.3437 11.0757 58.3112C11.4409 58.9486 12.0105 59.444 12.6923 59.7175L13.3654 59.9819H13.4495L16.6045 58.78C15.9375 58.3413 15.649 58.2211 15.7271 57.8545C15.8178 57.4174 15.9403 56.9876 16.0937 56.5684Z" fill="#F28F8F"/>
<path d="M10.9374 69.5494C10.8533 70.7092 10.3004 71.7789 9.60331 74.0205C8.9062 76.2621 8.76197 78.7741 12.7884 80.7874C16.8149 82.8006 19.4411 82.4761 21.4723 81.4604C23.5036 80.4448 31.0877 75.4508 31.0877 75.4508C31.9771 74.2489 28.5456 69.0205 21.6586 68.5217L16.8028 70.4448L10.9374 69.5494Z" fill="#7FA8E6"/>
<path d="M12.4339 57.1935C12.1395 57.56 12.1034 58.0228 13.2452 58.3112C14.0688 58.547 14.9498 58.4788 15.7272 58.1189C16.6239 58.5 17.4847 58.9606 18.2993 59.4951C20.8414 61.262 21.4544 64.3028 18.9003 65.3786C18.744 66.5324 18.5517 69.4951 18.5037 70.1862C16.3342 71.6947 11.9351 71.1838 10.9436 69.5853C10.9287 69.0497 10.8785 68.5157 10.7933 67.9867C9.75966 64.1526 8.95437 63.131 9.24283 60.2403C9.40509 58.5817 9.5313 57.7523 10.4448 57.3076C11.1004 57.1861 11.7687 57.1478 12.4339 57.1935Z" fill="#F5FBFB"/>
<path d="M12.5301 54.6874C12.0998 54.2648 11.7597 53.7593 11.5304 53.2015C11.3011 52.6437 11.1873 52.0452 11.196 51.4422C11.1651 50.9058 11.2403 50.3687 11.4173 49.8614C11.5942 49.3541 11.8695 48.8867 12.2273 48.486C12.5851 48.0852 13.0184 47.7589 13.5024 47.5258C13.9865 47.2926 14.5117 47.1572 15.0481 47.1273C15.7082 47.0803 16.3681 47.22 16.9526 47.5303C17.5371 47.8406 18.0225 48.309 18.3534 48.8821C18.2392 49.0689 18.1019 49.2405 17.9447 49.3929C17.9873 49.5443 17.9926 49.7037 17.9602 49.8575C17.9277 50.0114 17.8585 50.1551 17.7584 50.2763C17.6393 50.4074 17.5505 50.5632 17.4986 50.7325C17.4466 50.9018 17.4328 51.0806 17.458 51.2559C17.506 51.6812 17.506 52.1106 17.458 52.536C17.4218 52.716 17.3436 52.885 17.2298 53.0291C17.116 53.1732 16.9697 53.2884 16.8029 53.3653C16.7929 52.8591 16.674 52.3611 16.4544 51.9049C16.0818 51.3881 15.5709 51.3821 15.0782 51.959C14.9252 52.2377 14.851 52.5528 14.8637 52.8705C14.8765 53.1882 14.9755 53.4963 15.1503 53.7619C15.6971 54.5191 16.214 54.0564 16.214 54.0564C16.0217 54.5612 16.1779 55.2583 15.2825 55.4747C14.5486 55.636 13.781 55.5227 13.125 55.1561C12.9114 55.0204 12.712 54.8634 12.5301 54.6874Z" fill="#584B88"/>
<path d="M12.8004 47.9508C11.7367 47.6503 10.7512 49.2789 10.3966 51.5265C10.042 53.7741 9.99996 55.3066 10.6851 56.1479C11.3701 56.9892 14.2127 58.2753 16.8569 57.3138C16.8569 57.3138 16.1238 56.9051 16.256 54.0265C15.9612 54.2517 15.6137 54.3976 15.2465 54.4502C14.8793 54.5028 14.5047 54.4604 14.1586 54.327C12.7764 53.9424 12.2596 52.7525 12.3557 51.1719C12.4236 50.0886 12.5722 49.0119 12.8004 47.9508Z" fill="#584B88"/>
<path d="M33.2031 59.1405C32.9073 59.6427 32.6424 60.1625 32.4098 60.697C32.2775 61.1886 32.0303 61.6417 31.6887 62.0191C31.25 62.5119 29.9579 63.2871 28.0829 64.2787C26.2079 65.2703 24.7115 65.2643 23.5997 64.8797C21.1959 64.0083 19.7896 61.8749 18.1911 60.673C17.0853 59.8256 16.0276 60.2403 15.8654 61.0395C15.7331 61.6405 16.3041 63.3893 18.2031 65.1441C19.6754 66.5023 22.1754 67.9866 24.2127 67.9987C25.6306 67.9752 27.0282 67.658 28.3173 67.0672C29.9269 66.2596 31.4755 65.3357 32.9507 64.3028C33.3834 64.0203 33.774 63.9181 34.6574 63.4734C35.5518 63.0468 36.3277 62.4071 36.917 61.6104C37.3678 60.9193 37.4218 60.5948 37.3197 60.4446C37.2175 60.2943 36.9831 60.3004 36.7187 60.5948C36.3646 61.0873 35.9274 61.5144 35.4266 61.8568C35.4266 61.8568 35.9915 61.2559 36.298 60.8412C36.5681 60.4851 36.7903 60.0952 36.9591 59.6814C37.1153 59.2847 36.7608 58.7499 36.5084 59.0443C36.256 59.3388 36.1358 59.6453 35.679 60.2102C35.4357 60.5196 35.1574 60.8 34.8497 61.0455C35.1316 60.6371 35.3807 60.2071 35.5949 59.7595C35.7901 59.4099 35.8798 59.0112 35.8533 58.6117C35.8533 58.4013 35.5348 58.1609 35.2524 58.5636C35.0055 59.1091 34.6948 59.6235 34.3269 60.096C33.9182 60.5407 33.5697 60.8052 33.5577 60.697C33.5456 60.5888 33.798 60.3244 33.9363 59.8136C34.0745 59.3028 33.9363 58.7739 33.6238 58.7198C33.3113 58.6657 33.4134 58.6597 33.2031 59.1405Z" fill="#FFA8A7"/>
</g>
<defs>
<filter id="filter0_f" x="-8.00159" y="79.2039" width="48.3468" height="34.675" filterUnits="userSpaceOnUse" color-interpolation-filters="sRGB">
<feFlood flood-opacity="0" result="BackgroundImageFix"/>
<feBlend mode="normal" in="SourceGraphic" in2="BackgroundImageFix" result="shape"/>
<feGaussianBlur stdDeviation="4" result="effect1_foregroundBlur"/>
</filter>
<clipPath id="clip0">
<rect width="80" height="105.877" fill="white" transform="matrix(-1 0 0 1 80 0)"/>
</clipPath>
</defs>
</svg>
