<svg width="80" height="133" viewBox="0 0 80 133" fill="none" xmlns="http://www.w3.org/2000/svg">
<g clip-path="url(#clip0)">
<g style="mix-blend-mode:multiply" opacity="0.15">
<path d="M1.35921 102.451L30.5931 85.5748C31.6069 85.0597 32.728 84.7913 33.8651 84.7913C35.0022 84.7913 36.1233 85.0597 37.1371 85.5748L66.3836 102.451C68.1832 103.495 68.1832 105.182 66.3836 106.226L37.1371 123.115C36.1216 123.624 35.0012 123.889 33.8651 123.889C32.729 123.889 31.6087 123.624 30.5931 123.115L1.35921 106.226C-0.452965 105.182 -0.452965 103.495 1.35921 102.451Z" fill="#6B99D1"/>
</g>
<g style="mix-blend-mode:multiply" opacity="0.15" filter="url(#filter0_f)">
<path d="M45.3925 118.748L55.6741 112.808C62.6459 108.781 72.2857 107.774 77.1811 110.656C82.0765 113.538 80.4153 119.037 73.4057 123.064L63.1242 129.004C56.1523 133.031 46.5251 134.038 41.6172 131.169C36.7092 128.299 38.471 122.775 45.3925 118.748Z" fill="#A7C8F0"/>
</g>
<path d="M67.0506 69.6176L37.8041 52.7291C36.7903 52.214 35.6692 51.9456 34.5321 51.9456C33.395 51.9456 32.2739 52.214 31.2601 52.7291L1.97585 69.6176C0.176262 70.6621 0.176262 72.3484 1.97585 73.3929L31.2601 90.2814C32.2756 90.7907 33.396 91.0559 34.5321 91.0559C35.6682 91.0559 36.7885 90.7907 37.8041 90.2814L67.0506 73.3929C68.8502 72.3484 68.8502 70.6621 67.0506 69.6176Z" fill="#DCEEFF"/>
<path d="M34.5321 53.2075C33.6133 53.1874 32.7043 53.3995 31.8893 53.8241L2.64283 70.7126C2.11428 71.0146 1.92551 71.3292 1.92551 71.5054C1.92551 71.6816 2.11428 71.9962 2.64283 72.2982L31.8893 89.1867C32.7114 89.5919 33.6156 89.8026 34.5321 89.8026C35.4486 89.8026 36.3528 89.5919 37.1748 89.1867L66.4213 72.2982C66.9499 71.9962 67.1387 71.6816 67.1387 71.5054C67.1387 71.3292 66.9499 71.0146 66.4213 70.7126L37.2126 53.8241C36.3976 53.3995 35.4886 53.1874 34.5698 53.2075H34.5321ZM34.5698 51.949C35.7088 51.9292 36.8344 52.1976 37.8418 52.7293L67.0506 69.6177C68.8502 70.6623 68.8502 72.3486 67.0506 73.3931L37.8041 90.2816C36.7897 90.7947 35.6689 91.062 34.5321 91.062C33.3953 91.062 32.2745 90.7947 31.2601 90.2816L1.97585 73.3931C0.176262 72.3486 0.176262 70.6623 1.97585 69.6177L31.2601 52.7293C32.2676 52.1976 33.3931 51.9292 34.5321 51.949H34.5698Z" fill="white"/>
<path d="M68.3971 101.016C68.3609 101.422 68.2171 101.811 67.9803 102.143C67.7436 102.475 67.4227 102.737 67.0505 102.904L37.8041 119.792C36.7978 120.327 35.6714 120.596 34.5321 120.573V91.0618C35.6711 91.0816 36.7966 90.8132 37.8041 90.2815L67.0505 73.3931C67.4227 73.2267 67.7436 72.964 67.9803 72.6322C68.2171 72.3004 68.3609 71.9114 68.3971 71.5054V101.016Z" fill="#A5CBFA"/>
<path d="M0.717297 101.016C0.745064 101.413 0.875713 101.796 1.09638 102.127C1.31704 102.458 1.62012 102.726 1.97575 102.904L31.26 119.792C32.2663 120.327 33.3926 120.596 34.532 120.573V91.0618C33.393 91.0816 32.2675 90.8132 31.26 90.2815L1.97575 73.3931C1.62012 73.2148 1.31704 72.947 1.09638 72.616C0.875713 72.285 0.745064 71.9022 0.717297 71.5054V101.016Z" fill="#C8E2FF"/>
<path d="M74.7146 53.4843C73.5167 53.3318 72.3103 53.2562 71.1028 53.2578C69.9396 53.4403 68.755 53.4403 67.5917 53.2578C66.3333 53.0313 63.0109 50.2123 60.343 47.5696C57.4835 44.6891 55.2287 41.2662 53.711 37.5019C52.4525 33.5126 50.6152 25.3201 49.7091 22.5515C48.803 19.7829 47.4313 19.204 45.7575 18.8768C43.7943 18.4867 42.4729 19.204 43.2406 23.3191C44.0083 27.4343 46.0218 35.2367 48.5387 40.409C50.4737 44.2352 53.0246 47.7172 56.0894 50.7157C58.7487 53.258 61.7067 55.4681 64.8986 57.2974C65.8173 57.8763 66.3584 58.5559 67.9693 59.8143C69.5715 61.1292 71.4662 62.0399 73.4939 62.4697C75.218 62.7214 75.8724 62.5326 76.0737 62.2054C76.2751 61.8782 76.0737 61.4377 75.2809 61.2364C74.0224 61.0123 72.8155 60.5602 71.7195 59.9024C71.7195 59.9024 73.3932 60.431 74.4125 60.6701C75.3246 60.8749 76.2601 60.9554 77.1937 60.9092C78.0998 60.9092 78.792 59.7137 78.0243 59.4871C77.2567 59.2606 76.5897 59.2984 75.0795 58.9334C74.2722 58.7475 73.4905 58.4644 72.7514 58.0903C73.7783 58.2699 74.8175 58.3708 75.8598 58.3923C76.6924 58.4544 77.5257 58.2799 78.2634 57.8889C78.641 57.675 78.8423 56.8947 77.8355 56.7437C76.5635 56.745 75.2958 56.5929 74.0602 56.2907C72.8017 55.9005 72.0466 55.4727 72.2732 55.3342C72.4997 55.1958 73.1793 55.4727 74.2741 55.3342C75.369 55.1958 76.2247 54.2897 76.1115 53.7108C75.9982 53.1319 75.8094 53.4717 74.7146 53.4843Z" fill="#FFA8A7"/>
<path d="M45.5686 18.4238C47.5444 18.0337 49.2559 19.8333 50.1998 22.6774C51.1436 25.5215 52.4524 31.7131 53.2704 33.8399C53.7501 35.1077 54.1083 36.4181 54.3401 37.7537C54.3401 37.7537 50.9926 40.623 47.2424 39.8805C45.7866 36.0135 44.5926 32.053 43.6684 28.0258C42.5484 22.5767 42.0198 19.1034 45.5686 18.4238Z" fill="#E4F2F2"/>
<path d="M50.9423 38.7353C52.1665 38.3443 53.268 37.6417 54.1388 36.6966L53.9626 35.9792C53.9626 35.9792 54.3401 35.9792 54.9568 37.6278C55.5734 39.2764 55.7118 40.3964 55.4476 40.774C53.8997 42.9888 49.2811 43.983 48.3876 42.7749C47.7584 41.9192 46.2734 39.5407 46.7265 38.471L47.0285 39.2512C48.3552 39.3723 49.6923 39.1961 50.9423 38.7353Z" fill="#F5FBFB"/>
<path d="M62.583 106.138C62.4944 106.82 62.3684 107.496 62.2054 108.164C61.9072 109.189 61.8048 110.26 61.9034 111.323C62.067 112.065 64.1812 113.122 65.3516 113.273C66.7671 113.64 68.0391 114.425 69.0011 115.526C69.6735 116.185 70.4769 116.696 71.3591 117.026C72.2414 117.355 73.1829 117.496 74.123 117.439C75.759 117.25 77.5963 116.86 77.999 116.18C78.4017 115.501 77.8354 114.784 74.4124 112.405C70.9894 110.027 68.6739 108.441 67.6042 106.176L62.583 106.138Z" fill="#2D2979"/>
<path d="M50.1495 129.319C50.6076 129.897 51.1785 130.376 51.8276 130.726C52.4766 131.077 53.1902 131.292 53.9249 131.358C54.7138 131.454 55.5091 131.487 56.3034 131.458C57.1339 131.458 58.4301 130.955 58.3546 129.91C58.2939 129.581 58.1412 129.276 57.9142 129.029C56.5676 127.293 55.1204 125.632 53.8997 123.807C52.2601 121.741 51.1421 119.311 50.6403 116.722H45.4932C45.4932 117.15 45.3548 117.754 45.2793 118.32C45.2038 118.886 45.0402 119.453 44.9143 120.019C44.5475 121.115 44.6013 122.308 45.0653 123.366C45.6084 124.082 46.2781 124.692 47.0411 125.166C48.2626 126.401 49.3085 127.799 50.1495 129.319Z" fill="#2D2979"/>
<path d="M25.8865 61.2867C24.024 72.9275 30.0142 76.3253 35.6899 80.6921C38.5847 82.9246 41.615 84.9756 44.7633 86.8334C44.3504 89.6372 44.1569 92.4689 44.1844 95.3028C44.1844 100.337 45.4429 116.785 45.4429 116.785C46.2392 117.193 47.1214 117.406 48.0164 117.406C48.9115 117.406 49.7936 117.193 50.59 116.785C50.59 116.785 52.3266 104.339 53.1069 97.9959C54.2521 89.086 55.2463 85.059 54.8058 83.1965C54.4157 81.5605 47.0537 73.3805 45.2667 70.6119L61.7273 80.1762C61.406 82.5959 61.2462 85.0343 61.2491 87.4752C61.4253 94.3338 62.5076 106.176 62.5076 106.176C62.5076 106.176 65.2132 108.126 67.5414 106.176C67.5414 106.176 72.7136 78.2759 72.7136 75.8219C72.7136 72.0465 57.6122 62.734 54.2773 60.5191C51.6219 58.7195 48.5387 56.3914 48.5387 56.3914L25.8865 61.2867Z" fill="#7FA8E6"/>
<path d="M45.3926 70.574C47.131 69.1732 48.4394 67.3108 49.1679 65.2004C49.062 66.5777 48.8517 67.945 48.5387 69.2904C48.0983 71.0648 61.828 80.1383 61.828 80.1383L45.3926 70.574Z" fill="#597BC6"/>
<path d="M32.6696 16.7751C32.6696 16.7751 32.9465 22.3249 32.8332 22.8031C32.7199 23.2814 30.3163 24.9299 29.5738 25.5088C28.8313 26.0877 33.3492 30.5426 35.6144 31.5746C37.8796 32.6065 44.8263 29.926 44.9395 26.5408C45.0528 23.1555 43.744 20.2485 42.6743 20.0723C41.6046 19.8961 32.6696 16.7751 32.6696 16.7751Z" fill="#FFA8A7"/>
<path d="M40.5853 23.1304C41.3152 22.4634 39.7295 20.3366 39.2261 19.355C36.9357 18.6629 32.6696 16.8381 32.6696 16.8381C32.6696 16.8381 32.6696 18.0966 32.7703 19.0027C32.8015 19.5391 32.9508 20.062 33.2075 20.5341C33.4642 21.0062 33.8219 21.4157 34.2552 21.7335C35.0185 22.3371 35.8666 22.8248 36.7721 23.1808C37.6405 23.4702 39.4778 24.1749 40.5853 23.1304Z" fill="#F28F8F"/>
<path d="M32.0277 23.2435C32.0277 23.2435 36.0548 29.2337 41.6675 29.8C43.4419 28.0634 43.6055 21.8466 41.1515 19.8708C41.1515 19.8708 43.4041 18.0461 44.9269 18.3984C46.5844 19.404 47.8191 20.9787 48.4002 22.8282C49.8282 26.9526 50.4976 31.3015 50.376 35.6645C50.2627 42.1581 49.6335 59.7513 49.7468 56.6429C49.7468 56.6429 50.4515 59.7639 45.3799 62.5954C40.3083 65.4269 35.6269 66.698 32.1787 65.9303C29.3346 65.2633 26.3017 63.5267 25.8864 61.2866C26.1381 57.1589 27.019 50.2751 26.3269 45.0903C25.6347 39.9054 25.6977 35.6015 25.4208 31.4109C25.144 27.2202 25.9745 27.2957 28.0762 25.7982C29.3318 24.855 30.6522 24.0013 32.0277 23.2435Z" fill="#F5FBFB"/>
<path d="M41.6676 29.8002C41.9153 28.4483 42.0793 27.0824 42.1583 25.7102C41.9026 24.1476 41.3699 22.6432 40.5853 21.2679V19.72C41.4059 19.9146 42.1347 20.3856 42.6491 21.0539C44.0854 22.7516 44.8112 24.9379 44.6753 27.1574C43.9493 28.3106 42.9045 29.2286 41.6676 29.8002Z" fill="#E4F2F2"/>
<path d="M41.6675 29.8001C42.0828 29.0072 42.8504 26.3393 43.2405 25.9492C43.9704 25.7101 44.6752 27.2077 44.6752 27.2077C44.6499 28.1041 44.3115 28.9635 43.7187 29.6365C43.4371 29.8753 43.0875 30.0195 42.7195 30.0489C42.3514 30.0782 41.9834 29.9912 41.6675 29.8001Z" fill="#F5FBFB"/>
<path d="M43.2405 25.9493C42.8504 26.3394 42.0828 29.0073 41.6675 29.8001C41.9271 29.3638 42.2128 28.9435 42.5232 28.5417C42.9385 28.0131 43.4419 26.9938 44.6752 27.1826C44.6752 27.1574 43.9704 25.7102 43.2405 25.9493Z" fill="#C8DBDA"/>
<path d="M30.3162 4.6688C30.3162 4.6688 29.7876 2.96989 31.9647 1.32131C34.5572 -0.654464 38.257 -0.214005 42.0324 1.32131C44.4864 2.29032 48.3247 1.09479 47.557 3.91373C46.4747 8.04146 38.5087 8.39383 34.9725 5.52455C33.5275 4.81977 31.9173 4.52383 30.3162 4.6688Z" fill="#543354"/>
<path d="M32.8457 21.3055C32.9464 22.1612 37.4642 25.5213 38.5465 25.9618C39.6288 26.4022 41.6675 29.8001 41.6675 29.8001C40.8983 29.698 40.1159 29.7974 39.3967 30.0886C38.6776 30.3798 38.0464 30.8528 37.5649 31.4612C37.5649 31.4612 31.1468 28.7555 30.1149 24.4516C30.1149 24.4516 31.3733 22.1361 31.4866 21.5446C31.5998 20.9531 32.1536 20.2861 32.8205 20.2861L32.8457 21.3055Z" fill="#E4F2F2"/>
<path d="M37.5649 31.4613C37.5649 31.4613 38.0431 28.1516 38.7353 27.8496C39.4274 27.5475 41.6675 29.8505 41.6675 29.8505C40.5451 30.8745 39.0842 31.4481 37.5649 31.4613Z" fill="#F5FBFB"/>
<path d="M38.7353 27.7993C38.0431 28.1013 37.5649 31.411 37.5649 31.411C38.2815 30.7199 39.0705 30.1082 39.9182 29.5863C40.5098 29.5369 41.1052 29.6097 41.6675 29.8002C41.6675 29.8002 39.4148 27.4973 38.7353 27.7993Z" fill="#C8DBDA"/>
<path d="M45.2163 8.50701C44.5494 4.20309 41.441 0.956274 37.0112 1.1828C35.2279 1.28135 33.5202 1.93626 32.1283 3.05547C30.7363 4.17468 29.7301 5.70193 29.251 7.42256C28.7719 9.14319 28.844 10.9707 29.4572 12.6482C30.0703 14.3258 31.1938 15.769 32.6696 16.7751C32.8237 17.424 33.0517 18.0531 33.3491 18.6502C34.9222 20.4875 39.6414 21.6201 41.0383 21.4313C41.8494 21.3573 42.6197 21.042 43.25 20.5261C43.8803 20.0102 44.3416 19.3174 44.5745 18.5369C46.0218 15.1013 45.5813 10.6338 45.2163 8.50701Z" fill="#FFA8A7"/>
<path d="M44.5746 5.03377C43.6416 3.59515 42.2939 2.47361 40.7097 1.81747C39.1255 1.16133 37.3795 1.00148 35.7025 1.35908C33.9263 1.74708 32.3179 2.68593 31.1067 4.04178C29.8955 5.39764 29.1432 7.10128 28.9572 8.90981C28.8201 10.4375 29.0986 11.9739 29.7632 13.3562C30.4278 14.7386 31.4538 15.9156 32.7325 16.7626C32.6318 16.4605 30.3918 13.1256 32.7325 12.3832C33.0785 12.8984 33.2465 13.5128 33.2107 14.1324C33.2107 14.1324 34.3433 14.0317 34.0917 12.6852C34.0161 12.3202 33.9532 11.9679 33.8903 11.6658C33.7985 11.1521 33.8091 10.6253 33.9214 10.1156C34.0337 9.60594 34.2455 9.12347 34.5447 8.69588C34.8415 8.30163 35.0492 7.84767 35.1535 7.36533C35.2578 6.88299 35.2562 6.38376 35.1488 5.90211C37.2239 6.69237 39.483 6.86715 41.655 6.40549C42.7361 6.22632 43.7465 5.75158 44.5746 5.03377Z" fill="#543354"/>
<path d="M29.1962 73.5819C28.3438 72.7226 27.4403 71.9158 26.4905 71.1656C25.556 70.6452 24.7648 69.9016 24.1875 69.0011C23.4199 67.8559 22.6019 63.9673 22.2117 60.1919C21.9208 56.0185 22.3465 51.826 23.4702 47.7961C24.9803 43.014 28.1894 36.533 29.2339 33.8147C30.2784 31.0964 29.6114 29.7876 28.5166 28.4788C27.2581 26.9309 25.0055 27.019 23.0297 30.7189C20.4204 35.8703 18.3862 41.2934 16.964 46.89C16.033 51.0723 15.7991 55.3797 16.2718 59.6382C16.7227 63.2978 17.6143 66.8895 18.9272 70.3351C19.267 71.3544 19.267 72.2102 19.7074 74.2363C20.0883 76.2616 20.9516 78.1653 22.2243 79.7861C23.3947 81.0445 24.0239 81.3466 24.3889 81.2333C24.7538 81.12 24.8545 80.6166 24.3889 79.9748C23.5962 79.0189 22.9747 77.9333 22.5515 76.7658C22.5515 76.7658 23.4954 78.2382 24.1498 79.0688C24.7239 79.8035 25.3925 80.4594 26.1381 81.0194C26.868 81.5479 28.1391 81.0949 27.686 80.4405C27.233 79.7861 26.6918 79.3834 25.7606 78.1375C25.2574 77.4861 24.8348 76.7762 24.5021 76.0233C25.1761 76.8113 25.9126 77.5435 26.7044 78.213C27.3187 78.7765 28.0841 79.1483 28.9067 79.2827C29.3346 79.3582 29.9764 78.88 29.2968 78.1249C28.3195 77.33 27.4445 76.4169 26.6918 75.4066C25.9871 74.337 25.6473 73.4938 25.899 73.5315C26.1507 73.5693 26.5156 74.2111 27.4847 74.79C28.4537 75.3689 29.6114 75.2682 29.8631 74.79C30.1148 74.3118 30.0645 74.2489 29.1962 73.5819Z" fill="#FFA8A7"/>
<path d="M28.3027 27.5601C30.1148 28.4159 30.4294 30.8699 29.4982 33.7266C28.5669 36.5832 25.9745 42.3344 25.3579 44.5367C25.0069 45.8399 24.5263 47.1047 23.9232 48.312C23.9232 48.312 19.5312 48.6392 16.9388 45.7951C18.0579 41.8171 19.4453 37.9196 21.0917 34.1293C23.3695 29.108 25.0433 25.9996 28.3027 27.5601Z" fill="#E4F2F2"/>
<path d="M20.5884 47.104C21.8046 47.5106 23.1059 47.593 24.3637 47.3431L24.628 46.6635C24.628 46.6635 24.9426 46.89 24.4518 48.5889C23.961 50.2879 23.4199 51.2569 22.9794 51.4079C20.4625 52.2762 16.1208 50.3382 16.1208 48.891C16.1208 47.8339 16.3222 45.0401 17.3793 44.436L17.1528 45.2414C18.1491 46.1045 19.3215 46.74 20.5884 47.104Z" fill="#F5FBFB"/>
<path d="M32.6696 16.7373C32.6696 16.7373 32.4682 17.2029 31.6376 17.2407C30.0771 17.3162 28.2524 14.4217 29.5108 12.4585C29.6975 12.2248 29.9333 12.035 30.2015 11.9027C30.4698 11.7703 30.7638 11.6986 31.0629 11.6925C31.3619 11.6865 31.6586 11.7464 31.9319 11.8679C32.2053 11.9894 32.4485 12.1696 32.6444 12.3956L32.6696 16.7373Z" fill="#FFA8A7"/>
<path d="M71.0524 67.516L57.7631 59.8394C57.6464 59.772 57.514 59.7366 57.3792 59.7366C57.2445 59.7366 57.1121 59.772 56.9954 59.8394L33.6762 73.3049L47.2801 81.1954L71.0524 67.516Z" fill="#EFF6FE"/>
<path d="M47.2299 80.0755L40.0567 75.9352L61.0226 63.8289L68.2335 67.944L47.2299 80.0755Z" fill="#AAD1FC"/>
<path d="M43.7062 68.5607L43.832 68.6488L47.3431 70.6749L53.5977 67.0631L53.7235 66.9876L50.0866 64.886L43.7062 68.5607Z" fill="#AEB5B7"/>
<path d="M43.832 68.6486L47.3431 70.6748L53.5977 67.063L50.0866 65.0369L43.832 68.6486Z" fill="#AAD1FC"/>
<path d="M33.6763 73.305V73.6196C33.6745 73.8447 33.733 74.0662 33.8459 74.261C33.9588 74.4558 34.1219 74.6168 34.3181 74.7271L46.7013 81.8877C46.8968 81.9985 47.1184 82.055 47.3432 82.0513C47.5679 82.055 47.7895 81.9985 47.985 81.8877L70.4106 68.9382C70.6069 68.8279 70.77 68.6669 70.8829 68.4721C70.9957 68.2774 71.0543 68.0559 71.0524 67.8307V67.5161L47.2802 81.1955L33.6763 73.305Z" fill="#C8E2FF"/>
<path d="M47.2802 81.1955V82.0513C47.5049 82.055 47.7265 81.9985 47.922 81.8877L70.4106 68.9382C70.6069 68.8279 70.77 68.6669 70.8829 68.4721C70.9957 68.2774 71.0543 68.0559 71.0524 67.8307V67.5161L47.2802 81.1955Z" fill="#AAD1FC"/>
<path d="M47.7081 81.3843C47.9126 81.4602 48.1311 81.4905 48.3485 81.4731C48.5659 81.4557 48.7768 81.391 48.9666 81.2837L71.3419 68.3971C71.5351 68.2854 71.7015 68.133 71.8298 67.9504C71.958 67.7679 72.0449 67.5595 72.0844 67.34L74.5258 52.7671C74.5321 52.6833 74.5321 52.5992 74.5258 52.5154C74.5273 52.3149 74.4891 52.116 74.4135 51.9303C74.3379 51.7446 74.2264 51.5756 74.0854 51.4331L50.892 64.8357C50.749 64.9167 50.6262 65.029 50.5325 65.1641C50.4388 65.2991 50.3767 65.4536 50.3509 65.6159L47.7081 81.3843Z" fill="#EFF6FE"/>
<path d="M47.2802 81.1954L47.4438 81.2835C47.507 81.3245 47.5745 81.3583 47.6452 81.3842L50.2879 65.6157C50.3138 65.4534 50.3758 65.299 50.4695 65.1639C50.5632 65.0288 50.6861 64.9166 50.8291 64.8355L74.0979 51.433C74.0009 51.3434 73.8956 51.2633 73.7833 51.1938L50.5396 64.6216C50.3966 64.7027 50.2737 64.8149 50.1801 64.95C50.0864 65.085 50.0243 65.2395 49.9985 65.4018L47.2802 81.1954Z" fill="#C8E2FF"/>
<path d="M60.28 67.9565C60.6334 66.7392 61.4394 65.7034 62.5327 65.062C63.615 64.4454 64.3574 64.7222 64.1938 65.7038C63.8476 66.9247 63.0397 67.9628 61.9412 68.5983C60.8589 69.2149 60.1164 68.9129 60.28 67.9565Z" fill="#AAD1FC"/>
</g>
<defs>
<filter id="filter0_f" x="30.8281" y="101.007" width="57.1606" height="39.8011" filterUnits="userSpaceOnUse" color-interpolation-filters="sRGB">
<feFlood flood-opacity="0" result="BackgroundImageFix"/>
<feBlend mode="normal" in="SourceGraphic" in2="BackgroundImageFix" result="shape"/>
<feGaussianBlur stdDeviation="4" result="effect1_foregroundBlur"/>
</filter>
<clipPath id="clip0">
<rect width="80" height="132.792" fill="white" transform="matrix(-1 0 0 1 80 0)"/>
</clipPath>
</defs>
</svg>
