<svg width="80" height="117" viewBox="0 0 80 117" fill="none" xmlns="http://www.w3.org/2000/svg">
<g clip-path="url(#clip0)">
<g style="mix-blend-mode:multiply" opacity="0.15" filter="url(#filter0_f)">
<path d="M19.3875 108.207L13.6218 104.884C9.71821 102.63 4.32825 102.083 1.57611 103.667C-1.17603 105.251 -0.228708 108.371 3.67493 110.625L9.39154 113.949C13.336 116.211 18.7505 116.782 21.4781 115.149C24.2057 113.516 23.2911 110.461 19.3875 108.207Z" fill="#A7C8F0"/>
</g>
<g opacity="0.3">
<path opacity="0.3" d="M77.4684 21.2332L41.9028 0.694207C40.735 0.0245457 39.7795 0.571708 39.7795 1.9192V27.6685C39.8207 28.4046 40.0343 29.1207 40.4031 29.759C40.772 30.3974 41.2857 30.9401 41.9028 31.3434L77.4684 51.8743C78.6443 52.5521 79.5917 52.0049 79.5917 50.6329V24.9082C79.5524 24.1716 79.3396 23.4548 78.9706 22.8161C78.6016 22.1775 78.0869 21.6351 77.4684 21.2332Z" fill="#A8CDFF"/>
<path opacity="0.3" d="M77.4684 21.2332L41.9028 0.694207C40.735 0.0245457 39.7795 0.571708 39.7795 1.9192V27.6685C39.8207 28.4046 40.0343 29.1207 40.4031 29.759C40.772 30.3974 41.2857 30.9401 41.9028 31.3434L77.4684 51.8743C78.6443 52.5521 79.5917 52.0049 79.5917 50.6329V24.9082C79.5524 24.1716 79.3396 23.4548 78.9706 22.8161C78.6016 22.1774 78.0869 21.6351 77.4684 21.2332V21.2332Z" stroke="#E9FFFB" stroke-miterlimit="10"/>
<path opacity="0.8" d="M75.2144 25.0796L60.7514 16.7252C60.1634 16.3903 59.6897 16.6598 59.6897 17.3376V17.403C59.7096 17.7712 59.8162 18.1295 60.0007 18.4488C60.1851 18.768 60.4423 19.0393 60.7514 19.2405L75.2144 27.5867C75.8024 27.9297 76.2761 27.6521 76.2761 26.9742V26.9497C76.2619 26.5758 76.158 26.2107 75.9733 25.8852C75.7885 25.5597 75.5282 25.2834 75.2144 25.0796Z" fill="#EEF4FF"/>
<path opacity="0.8" d="M56.6272 14.3488L44.165 7.15403C43.577 6.81103 43.1033 7.0887 43.1033 7.76653V7.82369C43.1226 8.19204 43.2289 8.55059 43.4134 8.86997C43.5979 9.18935 43.8555 9.46049 44.165 9.66118L56.6272 16.8559C57.2152 17.1989 57.6888 16.9213 57.6888 16.2435V16.1863C57.6695 15.8179 57.5633 15.4594 57.3787 15.14C57.1942 14.8206 56.9367 14.5495 56.6272 14.3488Z" fill="#EEF4FF"/>
<g opacity="0.8">
<path opacity="0.8" d="M75.2144 36.8804L60.7514 28.5342C60.1634 28.1912 59.6897 28.4688 59.6897 29.1467V29.2038C59.7103 29.5708 59.8171 29.9277 60.0016 30.2455C60.1861 30.5634 60.443 30.8333 60.7514 31.0331L75.2144 39.3957C75.8024 39.7306 76.2761 39.4611 76.2761 38.7832V38.7179C76.2548 38.35 76.1478 37.9922 75.9634 37.6731C75.779 37.354 75.5225 37.0826 75.2144 36.8804Z" fill="#EEF4FF"/>
<path opacity="0.8" d="M56.6272 26.1332L44.165 18.9302C43.577 18.5954 43.1033 18.8649 43.1033 19.5427V19.5999C43.1232 19.9681 43.2298 20.3264 43.4143 20.6457C43.5987 20.965 43.8559 21.2362 44.165 21.4374L56.6272 28.6648C57.2152 28.9996 57.6888 28.7301 57.6888 28.0523V27.9952C57.6734 27.6226 57.5689 27.2591 57.3842 26.9352C57.1995 26.6113 56.9399 26.3362 56.6272 26.1332Z" fill="#EEF4FF"/>
</g>
<g opacity="0.8">
<path opacity="0.8" d="M75.2144 30.9841L67.3826 26.4598C66.7946 26.1249 66.321 26.3944 66.321 27.0723V27.1294C66.3403 27.4978 66.4465 27.8563 66.6311 28.1757C66.8156 28.4951 67.0732 28.7662 67.3826 28.9669L75.2144 33.483C75.8024 33.8179 76.2761 33.5484 76.2761 32.8705V32.8134C76.2555 32.4464 76.1486 32.0895 75.9642 31.7717C75.7797 31.4538 75.5228 31.184 75.2144 30.9841Z" fill="#EEF4FF"/>
<path opacity="0.8" d="M63.8709 24.4262L57.2233 20.5716C56.6435 20.2368 56.1617 20.5063 56.1617 21.1841V21.2331C56.1835 21.6019 56.2908 21.9607 56.4751 22.281C56.6593 22.6013 56.9155 22.8744 57.2233 23.0787L63.8709 26.9497C64.4508 27.2845 64.9244 27.015 64.9244 26.3372V26.28C64.9054 25.9103 64.8002 25.5502 64.6173 25.2283C64.4344 24.9065 64.1788 24.6318 63.8709 24.4262Z" fill="#EEF4FF"/>
<path opacity="0.8" d="M53.4586 18.3911L44.165 13.0665C43.577 12.7317 43.1034 13.0094 43.1034 13.6872V13.7443C43.1233 14.1125 43.2298 14.4708 43.4143 14.7901C43.5988 15.1094 43.856 15.3807 44.165 15.5818L53.4586 20.9065C54.0466 21.2413 54.5203 20.9636 54.5203 20.2858V20.2286C54.5003 19.8604 54.3938 19.5021 54.2093 19.1828C54.0248 18.8636 53.7676 18.5923 53.4586 18.3911Z" fill="#EEF4FF"/>
</g>
<g opacity="0.8">
<path opacity="0.8" d="M75.2144 42.8501L62.597 35.5818C62.009 35.247 61.5354 35.5165 61.5354 36.1943V36.2597C61.5553 36.6268 61.6619 36.9839 61.8464 37.3019C62.0309 37.6199 62.2882 37.8896 62.597 38.089L75.2144 45.3654C75.8024 45.7003 76.2761 45.4226 76.2761 44.7529V44.6876C76.2561 44.3194 76.1496 43.9611 75.9651 43.6418C75.7806 43.3225 75.5234 43.0513 75.2144 42.8501Z" fill="#EEF4FF"/>
<path opacity="0.8" d="M59.0773 33.5567L52.4378 29.6939C51.8498 29.3591 51.3762 29.6286 51.3762 30.3064V30.3636C51.3961 30.7329 51.5026 31.0923 51.687 31.4129C51.8714 31.7335 52.1286 32.0063 52.4378 32.2092L59.0773 36.0639C59.6653 36.3987 60.1389 36.1292 60.1389 35.4514V35.3942C60.1196 35.0258 60.0134 34.6673 59.8288 34.3479C59.6443 34.0285 59.3867 33.7574 59.0773 33.5567Z" fill="#EEF4FF"/>
<path opacity="0.8" d="M48.673 27.5134L44.165 24.9245C43.577 24.5815 43.1033 24.8592 43.1033 25.537V25.5942C43.1226 25.9626 43.2289 26.3211 43.4134 26.6405C43.598 26.9599 43.8555 27.231 44.165 27.4317L48.673 30.0287C49.261 30.3635 49.7346 30.0858 49.7346 29.408V29.3508C49.7147 28.9826 49.6081 28.6243 49.4237 28.3051C49.2392 27.9858 48.982 27.7145 48.673 27.5134Z" fill="#EEF4FF"/>
</g>
</g>
<g opacity="0.5">
<path opacity="0.5" d="M70.8371 25.0633L35.2716 4.53251C34.0956 3.85468 33.1483 4.40184 33.1483 5.7575V31.4986C33.1875 32.2352 33.4003 32.952 33.7693 33.5907C34.1383 34.2293 34.6531 34.7717 35.2716 35.1736L70.8371 55.7044C72.005 56.3822 72.9604 55.8351 72.9604 54.4794V28.7383C72.9193 28.0022 72.7057 27.2861 72.3368 26.6477C71.968 26.0094 71.4543 25.4667 70.8371 25.0633Z" fill="#A8CDFF"/>
<path opacity="0.5" d="M70.8371 25.0633L35.2716 4.53251C34.0956 3.85468 33.1483 4.40184 33.1483 5.7575V31.4986C33.1875 32.2352 33.4003 32.952 33.7693 33.5907C34.1383 34.2293 34.6531 34.7717 35.2716 35.1736L70.8371 55.7044C72.005 56.3822 72.9604 55.8351 72.9604 54.4794V28.7383C72.9193 28.0022 72.7057 27.2861 72.3368 26.6477C71.968 26.0094 71.4543 25.4666 70.8371 25.0633V25.0633Z" stroke="#E9FFFB" stroke-miterlimit="10"/>
<path opacity="0.8" d="M68.5668 28.9099L54.1119 20.5555C53.5321 20.2207 53.0502 20.4983 53.0502 21.168V21.2333C53.0721 21.6011 53.1794 21.9586 53.3637 22.2776C53.548 22.5966 53.8042 22.8682 54.1119 23.0708L68.5668 31.4171C69.1548 31.7601 69.6284 31.4824 69.6284 30.8046V30.7474C69.6091 30.379 69.5029 30.0205 69.3183 29.7011C69.1338 29.3817 68.8762 29.1106 68.5668 28.9099Z" fill="#EEF4FF"/>
<path opacity="0.8" d="M49.9878 18.1789L37.5337 10.9841C36.9457 10.6411 36.4721 10.9188 36.4721 11.5966V11.6538C36.4914 12.0221 36.5976 12.3807 36.7822 12.7001C36.9667 13.0194 37.2242 13.2906 37.5337 13.4913L49.9878 20.686C50.5758 21.029 51.0494 20.7514 51.0494 20.0735V20.0164C51.0295 19.6482 50.923 19.2899 50.7385 18.9706C50.554 18.6513 50.2968 18.3801 49.9878 18.1789Z" fill="#EEF4FF"/>
<g opacity="0.8">
<path opacity="0.8" d="M68.5668 40.7187L54.1119 32.3643C53.5321 32.0295 53.0502 32.299 53.0502 32.9768V33.034C53.0708 33.402 53.1776 33.7601 53.362 34.0793C53.5464 34.3984 53.8033 34.6698 54.1119 34.8715L68.5668 43.2259C69.1548 43.5607 69.6284 43.2912 69.6284 42.6134V42.5562C69.6091 42.1879 69.5029 41.8293 69.3183 41.51C69.1338 41.1906 68.8762 40.9194 68.5668 40.7187Z" fill="#EEF4FF"/>
<path opacity="0.8" d="M49.9878 29.9879L37.5337 22.785C36.9457 22.4501 36.4721 22.7278 36.4721 23.3975V23.4628C36.4895 23.8338 36.5948 24.1954 36.7794 24.5177C36.964 24.84 37.2225 25.1138 37.5337 25.3166L49.9878 32.4951C50.5758 32.8299 51.0494 32.5604 51.0494 31.8826V31.8499C51.034 31.4773 50.9295 31.1139 50.7448 30.7899C50.5601 30.466 50.3005 30.191 49.9878 29.9879Z" fill="#EEF4FF"/>
</g>
<g opacity="0.8">
<path opacity="0.8" d="M68.5668 34.8144L60.7432 30.2901C60.1552 29.9553 59.6815 30.2248 59.6815 30.9026V30.9679C59.7027 31.3358 59.8098 31.6936 59.9942 32.0127C60.1785 32.3318 60.435 32.6033 60.7432 32.8054L68.5668 37.3215C69.1548 37.6564 69.6284 37.3869 69.6284 36.709V36.6519C69.6091 36.2835 69.5029 35.925 69.3183 35.6056C69.1338 35.2862 68.8762 35.0151 68.5668 34.8144Z" fill="#EEF4FF"/>
<path opacity="0.8" d="M57.2316 28.2647L50.6003 24.4019C50.0123 24.0671 49.5386 24.3366 49.5386 25.0144V25.0716C49.5535 25.4465 49.6576 25.8125 49.8423 26.1392C50.0269 26.4658 50.2868 26.7437 50.6003 26.9499L57.2397 30.8045C57.8277 31.1394 58.3014 30.8699 58.3014 30.192V30.1349C58.2863 29.7602 58.1812 29.3946 57.995 29.0691C57.8088 28.7435 57.5469 28.4677 57.2316 28.2647Z" fill="#EEF4FF"/>
<path opacity="0.8" d="M46.8273 22.2214L37.5337 16.8805C36.9457 16.5457 36.472 16.8233 36.472 17.5011V17.5583C36.492 17.9265 36.5985 18.2848 36.783 18.6041C36.9674 18.9234 37.2246 19.1946 37.5337 19.3958L46.8273 24.7368C47.4071 25.0716 47.8889 24.7939 47.8889 24.1161V24.0589C47.8671 23.6912 47.7597 23.3336 47.5754 23.0146C47.3911 22.6956 47.1349 22.424 46.8273 22.2214Z" fill="#EEF4FF"/>
</g>
<g opacity="0.8">
<path opacity="0.8" d="M68.5668 46.6804L55.9575 39.4122C55.3695 39.0773 54.8959 39.3468 54.8959 40.0247V40.09C54.9171 40.4579 55.0242 40.8157 55.2085 41.1348C55.3929 41.4539 55.6494 41.7253 55.9575 41.9275L68.5668 49.1958C69.1548 49.5306 69.6284 49.2529 69.6284 48.5833V48.5179C69.6085 48.1497 69.5019 47.7914 69.3175 47.4721C69.133 47.1529 68.8758 46.8816 68.5668 46.6804Z" fill="#EEF4FF"/>
<path opacity="0.8" d="M52.4459 37.3868L45.8065 33.524C45.2185 33.1892 44.7448 33.4586 44.7448 34.1365V34.1936C44.7648 34.563 44.8713 34.9224 45.0557 35.243C45.2401 35.5636 45.4973 35.8364 45.8065 36.0393L52.4459 39.8939C53.0339 40.2288 53.5076 39.9593 53.5076 39.2814V39.1998C53.4845 38.8356 53.3765 38.482 53.1921 38.1672C53.0077 37.8523 52.7522 37.5851 52.4459 37.3868Z" fill="#EEF4FF"/>
<path opacity="0.8" d="M42.0416 31.3435L37.5337 28.7547C36.9457 28.4199 36.472 28.6894 36.472 29.3672V29.3999C36.4875 29.7724 36.5919 30.1359 36.7766 30.4598C36.9613 30.7838 37.2209 31.0588 37.5337 31.2618L42.0498 33.8588C42.6296 34.1937 43.1115 33.916 43.1115 33.2382V33.181C43.0887 32.8125 42.9801 32.4545 42.7943 32.1354C42.6086 31.8164 42.3508 31.5452 42.0416 31.3435Z" fill="#EEF4FF"/>
</g>
</g>
<g opacity="0.7">
<path opacity="0.7" d="M64.1976 28.8934L28.6321 8.36258C27.4643 7.68476 26.5169 8.23192 26.5169 9.58757V35.3287C26.5559 36.0644 26.7677 36.7805 27.1352 37.419C27.5027 38.0575 28.0155 38.6004 28.6321 39.0037L64.1976 59.5345C65.3736 60.2123 66.3209 59.6652 66.3209 58.3095V32.5684C66.2817 31.8318 66.0689 31.115 65.6999 30.4763C65.3309 29.8377 64.8161 29.2953 64.1976 28.8934Z" fill="#A8CDFF"/>
<path opacity="0.7" d="M64.1976 28.8934L28.6321 8.36258C27.4643 7.68476 26.5169 8.23192 26.5169 9.58757V35.3287C26.5559 36.0644 26.7677 36.7805 27.1352 37.419C27.5027 38.0575 28.0155 38.6004 28.6321 39.0037L64.1976 59.5345C65.3736 60.2123 66.3209 59.6652 66.3209 58.3095V32.5684C66.2817 31.8318 66.0689 31.115 65.6999 30.4763C65.3309 29.8377 64.8161 29.2953 64.1976 28.8934Z" stroke="#E9FFFB" stroke-miterlimit="10"/>
<path opacity="0.8" d="M61.9436 32.74L47.4805 24.3856C46.8925 24.0507 46.4189 24.3284 46.4189 24.9981V25.0634C46.4388 25.4316 46.5454 25.7899 46.7298 26.1092C46.9143 26.4284 47.1715 26.6997 47.4805 26.9009L61.9436 35.2471C62.5316 35.5901 63.0052 35.3125 63.0052 34.6346V34.5775C62.986 34.2091 62.8797 33.8506 62.6952 33.5312C62.5106 33.2118 62.2531 32.9407 61.9436 32.74Z" fill="#EEF4FF"/>
<path opacity="0.8" d="M43.3564 22.0497L30.8942 14.855C30.3062 14.512 29.8325 14.7896 29.8325 15.4675V15.5165C29.8518 15.8848 29.9581 16.2434 30.1426 16.5627C30.3272 16.8821 30.5847 17.1532 30.8942 17.3539L43.3564 24.4997C43.9444 24.8427 44.4181 24.565 44.4181 23.8872V23.8464C44.3919 23.4853 44.2825 23.1351 44.0983 22.8234C43.9141 22.5117 43.6601 22.2469 43.3564 22.0497Z" fill="#EEF4FF"/>
<g opacity="0.8">
<path opacity="0.8" d="M61.9436 44.5486L47.4805 36.1941C46.8925 35.8593 46.4189 36.1288 46.4189 36.8066V36.8638C46.4382 37.2322 46.5444 37.5907 46.729 37.9101C46.9135 38.2295 47.1711 38.5006 47.4805 38.7013L61.9436 47.0557C62.5316 47.3905 63.0052 47.121 63.0052 46.4432V46.3861C62.986 46.0177 62.8797 45.6592 62.6952 45.3398C62.5106 45.0204 62.2531 44.7493 61.9436 44.5486Z" fill="#EEF4FF"/>
<path opacity="0.8" d="M43.3564 33.8177L30.8942 26.6148C30.3062 26.28 29.8325 26.5576 29.8325 27.2273V27.2926C29.8525 27.6608 29.959 28.0191 30.1435 28.3384C30.328 28.6577 30.5852 28.9289 30.8942 29.1301L43.3564 36.3249C43.9444 36.6597 44.4181 36.3902 44.4181 35.7124V35.6552C44.3988 35.2869 44.2925 34.9283 44.108 34.609C43.9235 34.2896 43.6659 34.0184 43.3564 33.8177Z" fill="#EEF4FF"/>
</g>
<g opacity="0.8">
<path opacity="0.8" d="M61.9436 38.6445L54.1118 34.1202C53.5238 33.7853 53.0502 34.0548 53.0502 34.7327V34.798C53.0714 35.1659 53.1785 35.5237 53.3628 35.8428C53.5472 36.1619 53.8037 36.4334 54.1118 36.6355L61.9436 41.1516C62.5316 41.4946 63.0052 41.217 63.0052 40.5391V40.482C62.986 40.1136 62.8797 39.7551 62.6952 39.4357C62.5106 39.1163 62.2531 38.8452 61.9436 38.6445Z" fill="#EEF4FF"/>
<path opacity="0.8" d="M50.6002 32.0948L43.9526 28.232C43.3728 27.8972 42.8991 28.1667 42.8991 28.8445V28.9017C42.9194 29.2699 43.0252 29.6285 43.208 29.9488C43.3909 30.2691 43.6458 30.5425 43.9526 30.7473L50.6002 34.6019C51.18 34.9449 51.6537 34.6673 51.6537 33.9894V33.9323C51.6347 33.5648 51.5294 33.207 51.3463 32.8877C51.1633 32.5685 50.9077 32.2969 50.6002 32.0948Z" fill="#EEF4FF"/>
<path opacity="0.8" d="M40.1877 26.0515L30.8941 20.7106C30.3061 20.3757 29.8325 20.6534 29.8325 21.3312V21.3884C29.8524 21.7566 29.959 22.1149 30.1434 22.4342C30.3279 22.7534 30.5851 23.0247 30.8941 23.2259L40.1877 28.5832C40.7757 28.918 41.2494 28.6403 41.2494 27.9625V27.9053C41.232 27.5343 41.1266 27.1727 40.9421 26.8504C40.7575 26.5281 40.4989 26.2543 40.1877 26.0515Z" fill="#EEF4FF"/>
</g>
<g opacity="0.8">
<path opacity="0.8" d="M61.9436 50.5105L49.3262 43.283C48.7382 42.9482 48.2645 43.2177 48.2645 43.8955V43.9608C48.2944 44.3177 48.4056 44.663 48.5896 44.9702C48.7736 45.2774 49.0256 45.5383 49.3262 45.733L61.9436 53.0013C62.5316 53.3361 63.0052 53.0584 63.0052 52.3888V52.3479C62.9853 51.9797 62.8788 51.6214 62.6943 51.3022C62.5098 50.9829 62.2526 50.7116 61.9436 50.5105Z" fill="#EEF4FF"/>
<path opacity="0.8" d="M45.8146 41.2169L39.1669 37.3541C38.5871 37.0192 38.1134 37.2887 38.1134 37.9666V38.0237C38.1338 38.392 38.2395 38.7505 38.4224 39.0709C38.6052 39.3912 38.8602 39.6646 39.1669 39.8694L45.8146 43.724C46.3944 44.067 46.868 43.7893 46.868 43.1115V43.0543C46.849 42.6869 46.7437 42.329 46.5607 42.0098C46.3777 41.6906 46.1221 41.4189 45.8146 41.2169Z" fill="#EEF4FF"/>
<path opacity="0.8" d="M35.4021 35.1736L30.8941 32.5848C30.3061 32.2499 29.8325 32.5194 29.8325 33.1973V33.2544C29.8479 33.627 29.9524 33.9905 30.1371 34.3144C30.3218 34.6383 30.5814 34.9133 30.8941 35.1164L35.4021 37.7134C35.9901 38.0482 36.4637 37.7706 36.4637 37.1009V37.0356C36.4476 36.6631 36.3429 36.2999 36.1582 35.9761C35.9736 35.6523 35.7144 35.3772 35.4021 35.1736Z" fill="#EEF4FF"/>
</g>
</g>
<g opacity="0.9">
<path opacity="0.9" d="M57.5664 32.7235L22.0172 12.1927C20.8412 11.5148 19.8939 12.062 19.8939 13.4177V39.1996C19.9331 39.9362 20.1459 40.653 20.5149 41.2917C20.8839 41.9303 21.3987 42.4727 22.0172 42.8746L57.5664 63.3646C58.7342 64.0424 59.6897 63.4952 59.6897 62.1396V36.3985C59.6485 35.6624 59.4349 34.9462 59.0661 34.3079C58.6972 33.6695 58.1835 33.1268 57.5664 32.7235Z" fill="#A8CDFF"/>
<path opacity="0.9" d="M57.5664 32.7235L22.0172 12.1927C20.8412 11.5148 19.8939 12.062 19.8939 13.4177V39.1996C19.9331 39.9362 20.1459 40.653 20.5149 41.2917C20.8839 41.9303 21.3987 42.4727 22.0172 42.8746L57.5664 63.3646C58.7342 64.0424 59.6897 63.4952 59.6897 62.1396V36.3985C59.6485 35.6624 59.4349 34.9462 59.0661 34.3079C58.6972 33.6695 58.1835 33.1268 57.5664 32.7235V32.7235Z" stroke="#E9FFFB" stroke-miterlimit="10"/>
<path opacity="0.8" d="M55.3124 36.5701L40.8003 28.2156C40.2205 27.8808 39.7386 28.1585 39.7386 28.8281V28.8935C39.7605 29.2612 39.8678 29.6188 40.0521 29.9378C40.2364 30.2568 40.4926 30.5283 40.8003 30.731L55.3124 39.0772C55.8922 39.4202 56.3658 39.1425 56.3658 38.4647V38.3831C56.3431 38.0198 56.236 37.6669 56.0531 37.3522C55.8703 37.0375 55.6167 36.7697 55.3124 36.5701Z" fill="#EEF4FF"/>
<path opacity="0.8" d="M36.717 25.839L24.2466 18.6443C23.6586 18.3013 23.185 18.5789 23.185 19.2568V19.3139C23.2043 19.6823 23.3105 20.0408 23.4951 20.3602C23.6796 20.6796 23.9371 20.9507 24.2466 21.1514L36.717 28.3462C37.305 28.6892 37.7787 28.4115 37.7787 27.7337V27.6765C37.7575 27.3086 37.6504 26.9508 37.466 26.6317C37.2817 26.3126 37.0252 26.0412 36.717 25.839Z" fill="#EEF4FF"/>
<g opacity="0.8">
<path opacity="0.8" d="M55.3124 48.3788L40.8003 40.0162C40.2205 39.6813 39.7386 39.9508 39.7386 40.6287V40.6858C39.758 41.0553 39.8642 41.415 40.0487 41.7357C40.2331 42.0564 40.4907 42.329 40.8003 42.5315L55.3124 50.8859C55.8922 51.2208 56.3658 50.9513 56.3658 50.2734V50.2163C56.3468 49.8488 56.2415 49.491 56.0585 49.1717C55.8755 48.8525 55.6199 48.5809 55.3124 48.3788Z" fill="#EEF4FF"/>
<path opacity="0.8" d="M36.717 37.6478L24.2466 30.4449C23.6586 30.1101 23.185 30.3877 23.185 31.0574V31.1227C23.2049 31.4909 23.3114 31.8492 23.4959 32.1685C23.6804 32.4878 23.9376 32.759 24.2466 32.9602L36.717 40.155C37.305 40.498 37.7787 40.2203 37.7787 39.5425V39.4853C37.7587 39.1171 37.6522 38.7588 37.4677 38.4395C37.2833 38.1203 37.0261 37.849 36.717 37.6478Z" fill="#EEF4FF"/>
</g>
<g opacity="0.8">
<path opacity="0.8" d="M55.3124 42.4663L47.4806 37.942C46.8926 37.6071 46.4189 37.8766 46.4189 38.5544V38.6198C46.4402 38.9877 46.5472 39.3455 46.7316 39.6646C46.9159 39.9837 47.1725 40.2551 47.4806 40.4573L55.3124 44.9734C55.8922 45.3164 56.3658 45.0387 56.3658 44.3609V44.3037C56.3468 43.9363 56.2415 43.5784 56.0585 43.2592C55.8755 42.94 55.6199 42.6683 55.3124 42.4663Z" fill="#EEF4FF"/>
<path opacity="0.8" d="M43.9608 35.9332L37.3214 32.0704C36.7334 31.7355 36.2597 32.005 36.2597 32.6829V32.74C36.2797 33.1093 36.3862 33.4688 36.5706 33.7894C36.755 34.11 37.0122 34.3827 37.3214 34.5857L43.9608 38.4403C44.5488 38.7833 45.0225 38.5056 45.0225 37.8278V37.7707C45.0032 37.4023 44.8969 37.0438 44.7124 36.7244C44.5278 36.405 44.2703 36.1339 43.9608 35.9332Z" fill="#EEF4FF"/>
<path opacity="0.8" d="M33.5565 29.8816L24.2547 24.5406C23.6749 24.2058 23.1931 24.4835 23.1931 25.1613V25.2185C23.2137 25.5865 23.3205 25.9446 23.5049 26.2638C23.6893 26.5829 23.9462 26.8543 24.2547 27.056L33.5565 32.3969C34.1445 32.7317 34.6182 32.4541 34.6182 31.7762V31.7191C34.5982 31.3509 34.4917 30.9926 34.3072 30.6733C34.1227 30.354 33.8655 30.0828 33.5565 29.8816Z" fill="#EEF4FF"/>
</g>
<g opacity="0.8">
<path opacity="0.8" d="M55.3042 54.3406L42.695 47.0723C42.107 46.7375 41.6333 47.0152 41.6333 47.6848V47.7502C41.6532 48.1184 41.7598 48.4767 41.9443 48.7959C42.1287 49.1152 42.3859 49.3865 42.695 49.5876L55.3042 56.8559C55.8922 57.1907 56.3658 56.9212 56.3658 56.2434V56.1781C56.3446 55.8102 56.2375 55.4524 56.0532 55.1333C55.8688 54.8142 55.6123 54.5427 55.3042 54.3406Z" fill="#EEF4FF"/>
<path opacity="0.8" d="M39.167 45.0469L32.5275 41.1841C31.9395 40.8493 31.4659 41.1188 31.4659 41.7966V41.862C31.4871 42.2299 31.5942 42.5877 31.7785 42.9068C31.9629 43.2258 32.2194 43.4973 32.5275 43.6995L39.167 47.5541C39.755 47.8971 40.2286 47.6194 40.2286 46.9416V46.8844C40.2093 46.5161 40.1031 46.1575 39.9185 45.8382C39.734 45.5188 39.4765 45.2476 39.167 45.0469Z" fill="#EEF4FF"/>
<path opacity="0.8" d="M28.7709 39.0037L24.2547 36.4149C23.6749 36.08 23.1931 36.3495 23.1931 37.0273V37.0927C23.2149 37.4593 23.3223 37.8157 23.5067 38.1334C23.691 38.4511 23.9472 38.7211 24.2547 38.922L28.7709 41.519C29.3589 41.8538 29.8325 41.5761 29.8325 40.9065V40.833C29.8113 40.4662 29.7042 40.1095 29.5198 39.7918C29.3354 39.474 29.0788 39.204 28.7709 39.0037Z" fill="#EEF4FF"/>
</g>
</g>
<path d="M11.1392 105.741C10.5676 105.121 9.9959 102.303 9.9959 102.303C9.8414 101.819 9.7508 101.316 9.7264 100.809C9.7754 100.368 10.2246 97.3786 10.2246 97.3786L7.30909 97.0928C7.30909 97.0928 7.46426 99.5428 7.48059 100.359C7.50886 101.257 7.39024 102.154 7.12943 103.014C7.27642 103.43 8.88525 106.337 8.87708 106.346C8.86892 106.354 10.6166 106.787 10.6166 106.787L11.4332 106.444L11.1392 105.741Z" fill="#FFA8A7"/>
<path d="M11.5885 107.366C11.9886 107.268 13.2953 106.362 12.495 105.954C12.3056 105.85 12.0977 105.786 11.8833 105.763C11.6688 105.741 11.452 105.761 11.2455 105.823C11.2455 105.823 11.417 106.141 11.1393 106.109C10.6166 106.06 10.2165 103.773 10.2165 102.997L8.76282 103.528L9.34265 106.689L10.0123 107.121L11.1311 107.366H11.5885Z" fill="#2D2979"/>
<path d="M9.66923 104.141C9.66923 105.945 10.0041 106.19 10.2001 106.591C10.3105 106.817 10.4863 107.005 10.7047 107.13C10.9231 107.255 11.174 107.312 11.425 107.293C10.8534 107.579 7.99508 107.513 7.39892 107.081C7.07225 106.836 7.28459 106.174 7.30092 105.382C7.31726 104.59 7.05592 103.691 7.07225 103.267C7.08859 102.842 9.66923 104.141 9.66923 104.141Z" fill="#291D51"/>
<path d="M8.69745 101.454C9.10657 101.495 9.48683 101.683 9.76767 101.984C10.0485 102.284 10.2109 102.676 10.2246 103.087C10.2736 103.847 9.49777 103.904 8.90161 105.382C8.59823 106.351 8.45749 107.364 8.48511 108.379C8.41817 108.443 8.3289 108.479 8.23603 108.479C8.14316 108.479 8.05389 108.443 7.98695 108.379C7.98695 108.379 7.98695 107.513 7.92978 106.68C7.89421 106.097 7.8233 105.516 7.71745 104.941C7.48062 104.124 7.00695 103.806 7.07229 103.014C7.11042 102.565 7.27149 102.135 7.53778 101.772C7.87256 101.528 8.28499 101.415 8.69745 101.454Z" fill="#2D2979"/>
<path d="M14.4548 111.801C14.4548 111.801 14.1935 112.258 12.8215 111.662C12.3814 111.504 11.9804 111.253 11.6455 110.927C11.4947 110.398 11.3092 109.88 11.0902 109.375C11.0902 109.375 11.376 107.522 12.2499 108.24C13.1237 108.959 14.4548 111.801 14.4548 111.801Z" fill="#291D51"/>
<path d="M11.1801 101.772C11.0168 102.809 10.9351 103.536 10.8208 104.181C10.7644 104.576 10.6192 104.953 10.3961 105.284C10.0868 105.677 9.87672 106.14 9.78362 106.631C10.7655 106.784 11.662 107.279 12.3153 108.028C13.1319 109.179 13.1319 110.339 13.9486 110.535C14.7652 110.731 16.0719 109.816 16.0719 109.816C15.7896 109.776 15.5264 109.651 15.3177 109.456C15.1089 109.262 14.9646 109.009 14.9041 108.73C14.5692 107.677 13.7199 105.39 13.6464 104.802C13.7004 103.935 13.9136 103.085 14.2752 102.295L11.1801 101.772Z" fill="#FFA8A7"/>
<path d="M10.8943 105.349C11.6293 105.398 12.7399 106.558 13.1074 107.399C13.4231 108.267 13.9248 109.056 14.5774 109.71C15.0592 109.98 15.9004 109.588 16.6191 109.579C17.3377 109.571 17.8441 109.914 17.8849 110.437L14.8959 111.882C14.2018 112.209 13.6219 112.217 13.0748 110.78C12.5276 109.343 12.0294 108.109 11.3516 109.147C10.9263 109.962 10.6498 110.847 10.535 111.76C10.535 111.76 10.2573 111.98 9.93062 111.629C10.0417 111.133 10.0992 110.627 10.1021 110.118C10.1021 108.191 9.44063 107.726 9.61212 106.966C9.83262 105.782 10.1021 105.284 10.8943 105.349Z" fill="#2D2979"/>
<path d="M18.9547 30.094C18.9547 30.094 20.8656 28.9833 20.6778 27.3255C20.49 25.6677 17.9502 21.6089 13.4259 23.577C9.18741 24.4999 18.9547 30.094 18.9547 30.094Z" fill="#543354"/>
<path d="M8.13389 37.4275C6.8354 37.8032 6.08407 39.2405 4.94891 42.3274C3.81375 45.4144 2.61326 49.8979 2.76026 51.082C3.12776 53.9893 4.93258 56.4638 8.04405 58.5218L9.43237 55.982C9.43237 55.982 6.37807 53.532 6.09224 50.6247C5.9289 48.9914 8.04405 43.4463 8.04405 43.2748C8.04405 43.1033 8.13389 37.4275 8.13389 37.4275Z" fill="#FFA8A7"/>
<path d="M6.79459 87.5459C7.03605 85.9787 7.15347 84.395 7.14576 82.8093C7.14576 82.8093 6.63943 77.9093 6.2311 73.6709C5.62677 67.4398 4.44261 66.0269 5.12044 62.2376C5.7166 58.971 7.88075 56.4639 8.84441 54.071L19.0118 54.8877C19.0118 54.8877 19.8938 57.795 21.0371 63.528C22.1805 69.2609 21.7476 77.0519 20.882 85.0633C20.6288 87.3744 19.167 90.4859 17.5173 94.4222C16.0065 98.0237 13.728 103.944 13.728 103.944C12.16 104.859 10.8942 103.291 10.8942 103.291C10.8942 103.291 12.062 95.492 12.5275 92.8461C13.3442 88.3626 15.4267 86.1739 15.4267 86.1739C15.4267 86.1739 14.953 82.9073 14.61 80.0082C14.2507 76.8722 13.1972 71.6701 13.1972 71.6701C13.1972 71.6701 13.14 79.7223 12.9849 82.0498C12.798 84.4428 12.4433 86.8197 11.9232 89.1629C11.2536 92.8869 9.78356 100.261 9.78356 100.261C9.40767 100.407 9.00615 100.475 8.60329 100.461C8.20043 100.447 7.80461 100.351 7.43975 100.18C7.43975 100.18 6.36993 90.7962 6.79459 87.5459Z" fill="#7FA8E6"/>
<path d="M7.14581 65.9697C9.16296 68.044 12.7318 68.4769 12.7318 68.4769L13.2136 71.67C13.3443 74.2752 13.0094 77.3866 13.0748 80.3511C13.0748 80.3511 12.3479 72.5602 11.3761 71.2698C10.4043 69.9795 7.79914 67.7827 7.14581 65.9697Z" fill="#5C7CC2"/>
<path d="M8.72191 37.3705C10.8861 37.2398 11.0984 37.5992 11.2699 36.8315C11.3352 36.5538 11.4496 34.651 11.4496 34.651C11.2513 34.3915 11.0712 34.1186 10.9106 33.8344C9.91838 33.2312 9.14093 32.3313 8.68818 31.2621C8.23544 30.1928 8.1303 29.0083 8.38763 27.876C8.64497 26.7438 9.25175 25.721 10.1222 24.9525C10.9926 24.184 12.0826 23.7085 13.238 23.5934C16.1127 23.2913 18.2197 25.3084 18.7913 28.0851C19.2803 30.1999 19.1986 32.4067 18.5545 34.4795C18.0727 35.7453 17.6317 36.6355 16.4802 36.5865C16.0995 36.5539 15.7225 36.4883 15.3532 36.3905C15.2956 36.9165 15.2738 37.4458 15.2879 37.9748C15.2879 38.5302 15.2307 38.7915 16.3087 39.4775C17.3867 40.1635 14.6754 41.5191 12.895 41.3803C11.1147 41.2415 9.11391 40.1716 8.56674 39.0201C7.95425 37.7543 7.70925 37.4277 8.72191 37.3705Z" fill="#FFA8A7"/>
<path d="M10.2736 33.385L12.1356 33.483H14.169L14.7979 32.748C14.7979 32.748 14.9285 35.0919 15.5655 35.6635C16.0061 36.0414 16.5054 36.3448 17.0437 36.5619C16.8611 36.6169 16.6708 36.6418 16.4802 36.6354C16.0996 36.6028 15.7225 36.5372 15.3532 36.4394C15.2957 36.9654 15.2738 37.4947 15.2879 38.0237C15.2879 38.579 15.2307 38.8403 16.3087 39.5263C17.3867 40.2123 14.6754 41.568 12.8951 41.4291C11.1147 41.2903 9.11391 40.2205 8.56675 39.069C7.95426 37.7868 7.75009 37.4357 8.72192 37.4357C10.8861 37.305 11.0984 37.6643 11.2699 36.8967C11.3352 36.619 11.4496 34.7162 11.4496 34.7162C11.2513 34.4567 11.0713 34.1838 10.9106 33.8995C10.6885 33.7405 10.4758 33.5687 10.2736 33.385Z" fill="#F28F8F"/>
<path d="M10.3063 34.0384C9.69575 33.4919 9.20227 32.8273 8.85558 32.0848C8.5089 31.3423 8.31621 30.5373 8.28911 29.7183C8.13597 28.2521 8.57122 26.7851 9.49921 25.6396C10.4272 24.4942 11.772 23.7641 13.2381 23.6097C14.293 23.4374 15.375 23.6395 16.2967 24.1809C17.2184 24.7223 17.9217 25.5689 18.285 26.5742C18.2152 26.6938 18.1183 26.7954 18.0019 26.8706C17.8856 26.9458 17.7531 26.9925 17.6154 27.007C17.653 27.2093 17.6454 27.4175 17.5931 27.6165C17.5409 27.8156 17.4453 28.0007 17.3132 28.1585C16.9239 28.6015 16.6839 29.1558 16.6272 29.7428C16.6482 30.36 16.6126 30.9778 16.521 31.5884C16.4603 31.7878 16.3333 31.9605 16.161 32.0778C15.9887 32.1951 15.7815 32.2501 15.5737 32.2336C15.5737 32.2336 15.5247 31.0821 15.4104 29.9878C15.0674 29.1711 13.6791 29.0323 13.4259 30.0368C13.3309 30.3933 13.3094 30.7653 13.3628 31.1304C13.4161 31.4954 13.5432 31.8457 13.7362 32.1601C13.9812 32.6501 14.4141 32.9114 14.7979 32.7154C14.8754 33.2509 14.7389 33.7954 14.4179 34.231C14.097 34.6666 13.6173 34.9583 13.0829 35.0429C11.8742 35.3859 11.7599 34.9368 11.1474 34.6183C10.8493 34.452 10.5677 34.2579 10.3063 34.0384Z" fill="#543354"/>
<path d="M10.878 37.3214C10.4778 37.8196 10.4288 38.4484 11.9723 38.8322C13.0931 39.1572 14.2934 39.0674 15.3533 38.5791C16.5701 39.0909 17.7397 39.7085 18.8486 40.4247C22.3031 42.8257 23.136 46.958 19.6652 48.428C19.4529 49.9878 19.1916 54.0221 19.1262 54.9613C16.1781 57.0192 10.2001 56.3169 8.85266 54.1446C8.83281 53.4141 8.7646 52.6856 8.64849 51.9641C7.23567 46.7212 6.14135 45.341 6.50068 41.4047C6.72118 39.1589 6.89267 38.0237 8.09316 37.4276C9.01205 37.2635 9.94926 37.2277 10.878 37.3214Z" fill="#F5FBFB"/>
<path d="M14.7979 32.7153V46.3862C14.7979 46.3862 13.385 47.3662 10.9105 46.182C8.43607 44.9979 8.2564 44.2792 8.2564 42.9726V29.0894C8.2564 29.0894 11.0739 32.4295 13.0992 33.1155C14.6672 33.6218 14.7979 32.7153 14.7979 32.7153Z" fill="#543354"/>
<path d="M39.9836 54.1037C39.2169 54.2679 38.4613 54.4807 37.7215 54.7407C37.0449 55.0934 36.3175 55.3386 35.5655 55.4675C34.7488 55.5982 33.4748 55.1735 31.278 54.1364C28.8738 52.9022 26.6976 51.2672 24.8428 49.3017C22.7398 46.7944 20.8598 44.1083 19.2241 41.274C18.2686 39.5427 17.0682 39.1017 16.0147 39.4447C14.757 39.8611 14.6018 41.078 16.0147 43.4463C17.8114 46.5006 19.9693 49.3275 22.4418 51.8661C24.3899 53.814 26.6577 55.4133 29.1466 56.5945C30.9218 57.5199 32.823 58.1802 34.7897 58.5545C35.4757 58.7097 35.9493 58.9955 37.2396 59.4365C38.5023 59.9002 39.8585 60.0515 41.1923 59.8775C42.2948 59.657 42.6623 59.4038 42.7113 59.167C42.7603 58.9302 42.5316 58.7015 42.0171 58.7423C41.2032 58.8687 40.3731 58.8466 39.5671 58.677C39.5671 58.677 40.7023 58.677 41.3801 58.5627C41.9827 58.4913 42.5731 58.3403 43.1359 58.1135C43.6749 57.8848 43.8546 57.0355 43.3319 57.0682C42.8093 57.1008 42.4091 57.256 41.4046 57.3622C40.862 57.4253 40.3139 57.4253 39.7713 57.3622C40.4394 57.252 41.0976 57.0881 41.7394 56.8722C42.2614 56.7327 42.7339 56.4498 43.1033 56.0555C43.2829 55.835 43.2339 55.3205 42.5888 55.443C41.8146 55.7125 41.0115 55.8907 40.196 55.9739C39.3793 55.9739 38.7913 55.9004 38.8893 55.7779C38.9873 55.6554 39.4855 55.6635 40.1143 55.3124C40.7431 54.9612 41.0943 54.2915 40.882 53.973C40.6696 53.6545 40.6941 53.8995 39.9836 54.1037Z" fill="#FFA8A7"/>
</g>
<defs>
<filter id="filter0_f" x="-6" y="96.7605" width="35.0463" height="25.3239" filterUnits="userSpaceOnUse" color-interpolation-filters="sRGB">
<feFlood flood-opacity="0" result="BackgroundImageFix"/>
<feBlend mode="normal" in="SourceGraphic" in2="BackgroundImageFix" result="shape"/>
<feGaussianBlur stdDeviation="3" result="effect1_foregroundBlur"/>
</filter>
<clipPath id="clip0">
<rect width="80" height="116.072" fill="white" transform="matrix(-1 0 0 1 80 0)"/>
</clipPath>
</defs>
</svg>
